<?xml version="1.0" standalone="no"?><!DOCTYPE svg PUBLIC "-//W3C//DTD SVG 1.1//EN" "http://www.w3.org/Graphics/SVG/1.1/DTD/svg11.dtd"><svg t="1569377134794" class="icon" viewBox="0 0 1024 1024" version="1.1" xmlns="http://www.w3.org/2000/svg" p-id="7225" xmlns:xlink="http://www.w3.org/1999/xlink" width="200" height="200"><defs><style type="text/css"></style></defs><path d="M778.2 440.9c14.6 0 18.2-8.3 8-18.5L548.4 184.6c-10.2-10.2-26.9-10.2-37.1 0L273.6 422.3c-10.2 10.2-6.6 18.5 8 18.5h67.2c14.6 0 26.5 11.7 26.5 25.9v189.5c0 14.2 11.9 25.9 26.5 25.9H658c14.6 0 26.5-11.7 26.5-25.9V466.8c0-14.2 11.9-25.9 26.5-25.9h67.2zM657.5 782.1H402.3c-13 0-23.6-10.6-23.6-23.6v-2.8c0-13 10.6-23.6 23.6-23.6h255.2c13 0 23.6 10.6 23.6 23.6v2.8c0 13-10.7 23.6-23.6 23.6zM616.2 882H443.5c-13 0-23.6-10.6-23.6-23.6v-2.8c0-13 10.6-23.6 23.6-23.6h172.7c13 0 23.6 10.6 23.6 23.6v2.8c0 13-10.6 23.6-23.6 23.6z" fill="#FFD6C2" p-id="7226"></path><path d="M742.4 405.9c14.6 0 18.2-8.3 8-18.5L512.6 149.6c-10.2-10.2-26.9-10.2-37.1 0L237.8 387.4c-10.2 10.2-6.6 18.5 8 18.5H313c14.6 0 26.5 11.7 26.5 25.9v189.5c0 14.2 11.9 25.9 26.5 25.9h256.2c14.6 0 26.5-11.7 26.5-25.9V431.8c0-14.2 11.9-25.9 26.5-25.9h67.2zM621.7 747.1H366.5c-13 0-23.6-10.6-23.6-23.6v-2.8c0-13 10.6-23.6 23.6-23.6h255.2c13 0 23.6 10.6 23.6 23.6v2.8c0 13-10.6 23.6-23.6 23.6zM580.5 847H407.8c-13 0-23.6-10.6-23.6-23.6v-2.8c0-13 10.6-23.6 23.6-23.6h172.7c13 0 23.6 10.6 23.6 23.6v2.8c-0.1 13-10.7 23.6-23.6 23.6z" fill="#FB560A" p-id="7227"></path></svg>