<?xml version="1.0" standalone="no"?><!DOCTYPE svg PUBLIC "-//W3C//DTD SVG 1.1//EN" "http://www.w3.org/Graphics/SVG/1.1/DTD/svg11.dtd"><svg t="1569377048152" class="icon" viewBox="0 0 1024 1024" version="1.1" xmlns="http://www.w3.org/2000/svg" p-id="5480" xmlns:xlink="http://www.w3.org/1999/xlink" width="200" height="200"><defs><style type="text/css"></style></defs><path d="M338.8 455.9h347.4v48H338.8zM338.8 370.7h347.4v48H338.8z" fill="#0071BC" p-id="5481"></path><path d="M681.9 276.7h-60.5V97c0-15.6 12.6-28.2 28.2-28.2h4.1c15.6 0 28.2 12.6 28.2 28.2v179.7zM403.6 276.7h-60.5V97c0-15.6 12.6-28.2 28.2-28.2h4.1c15.6 0 28.2 12.6 28.2 28.2v179.7z" fill="#66E3AA" p-id="5482"></path><path d="M660.1 708.4h-295L234.2 551c-9.7-12.7-15-28.4-15-44.2V264.2H806v242.6c0 15.8-5.3 31.5-15 44.2l-0.6 0.8-130.3 156.6z m-272.4-48h249.9l115.5-138.9c3.2-4.3 4.9-9.5 4.9-14.7V312.2H267.2v194.6c0 5.2 1.7 10.4 4.9 14.7l115.6 138.9z" fill="#0071BC" p-id="5483"></path><path d="M600.3 808.1H424.8c-39.9 0-72.4-32.5-72.4-72.4v-75.2h320.4v75.2c-0.1 40-32.7 72.4-72.5 72.4z m-199.9-99.6v27.2c0 13.5 10.9 24.4 24.4 24.4h175.5c13.5 0 24.5-11 24.5-24.5v-27.1H400.4z" fill="#0071BC" p-id="5484"></path><path d="M515.4 956.6h-5.8c-35 0-63.5-28.5-63.5-63.5v-133h132.7V893c0.1 16.9-6.5 32.9-18.4 44.9-12 12.1-28 18.7-45 18.7z m-21.3-148.5v85c0 8.5 7 15.5 15.5 15.5h5.8c4.1 0 8-1.6 10.9-4.5 2.9-2.9 4.5-6.8 4.5-10.8v-85.1h-36.7z" fill="#0071BC" p-id="5485"></path></svg>