<?xml version="1.0" standalone="no"?><!DOCTYPE svg PUBLIC "-//W3C//DTD SVG 1.1//EN" "http://www.w3.org/Graphics/SVG/1.1/DTD/svg11.dtd"><svg t="1570694194243" class="icon" viewBox="0 0 1024 1024" version="1.1" xmlns="http://www.w3.org/2000/svg" p-id="5249" width="128" height="128" xmlns:xlink="http://www.w3.org/1999/xlink"><defs><style type="text/css"></style></defs><path d="M588.4 869.2L117.2 398l-14-218.4c-1.6-22 6.8-43.2 22.4-58.8 15.6-15.6 36.8-23.6 58.8-22.4l218.4 14 471.2 471.2-285.6 285.6zM129.6 392.4L588 850.8l267.2-267.2L396.8 125.2l-213.6-13.6c-18.4-1.2-36 5.6-48.8 18.4-12.8 12.8-19.6 30.8-18.4 48.8l13.6 213.6z" fill="#4A555F" p-id="5250"></path><path d="M390 140l-208-13.2h-3.2c-12.8 0-24.8 4.8-34 14-9.6 9.6-14.8 23.2-14 36.8l13.2 208 443.6 443.6 245.6-245.6L390 140zM166.8 206.8c-12.8-12.8-12.8-33.6 0-46.4 12.8-12.8 33.6-12.8 46.4 0 12.8 12.8 12.8 33.6 0 46.4-12.8 12.8-33.6 12.8-46.4 0z m412.4 561.6l-367.6-367.6 195.6-195.6 367.6 367.6-195.6 195.6z" fill="#E0E0E0" p-id="5251"></path><path d="M579.2 777.6l-376.8-376.8 205.2-205.2 376.8 376.8-205.2 205.2z m-358.4-376.8l358.4 358.4 186.4-186.4-358.4-358.4-186.4 186.4z" fill="#4A555F" p-id="5252"></path><path d="M743.872 572.44l-164.896 164.896L242.4 400.76l164.896-164.896z" fill="#FFD552" p-id="5253"></path><path d="M190 222.8c-10.4 0-20.4-4-28-11.6-15.2-15.2-15.2-40.4 0-55.6 7.6-7.6 17.2-11.6 28-11.6 10.4 0 20.4 4 28 11.6 15.2 15.2 15.2 40.4 0 55.6-7.6 7.6-17.6 11.6-28 11.6z m0-65.6c-7.2 0-13.6 2.8-18.4 7.6-10.4 10.4-10.4 26.8 0 37.2 4.8 4.8 11.6 7.6 18.4 7.6 7.2 0 13.6-2.8 18.4-7.6 10.4-10.4 10.4-26.8 0-37.2-4.8-4.8-11.6-7.6-18.4-7.6zM377.2 455.6c-12 0-23.6-4.8-32-13.2-8.4-8.4-13.2-20-13.2-32s4.8-23.6 13.2-32l9.2 9.2c-6 6-9.6 14.4-9.6 22.8 0 8.8 3.2 16.8 9.6 22.8 6 6 14.4 9.6 22.8 9.6 8.8 0 16.8-3.2 22.8-9.6 11.6-11.6 11.6-30 0-41.2l-4.4-4.4c-8-8-12.4-18.8-12.4-30s4.4-22 12.4-30l2-2c8.4-8.4 20-13.2 32-13.2s23.6 4.8 32 13.2c8.4 8.4 13.2 20 13.2 32s-4.8 23.6-13.2 32l-0.4 0.4-9.2-9.2 0.4-0.4c6-6 9.6-14.4 9.6-22.8 0-8.8-3.2-16.8-9.6-22.8-6-6-14.4-9.6-22.8-9.6-8.8 0-16.8 3.2-22.8 9.6l-2 2c-5.6 5.6-8.4 12.8-8.4 20.8s3.2 15.2 8.4 20.8l4.4 4.4c16.4 16.4 16.4 43.2 0 60-8.4 8.4-20 12.8-32 12.8zM479.6 576.8l-38.8-38.8c-8-8-12.4-18.8-12.4-30s4.4-22 12.4-30l54-54c8-8 18.8-12.4 30-12.4s22 4.4 30 12.4l38.8 38.8-9.2 9.2-38.8-38.8c-5.6-5.6-12.8-8.8-20.8-8.8s-15.2 3.2-20.8 8.8l-54 54c-5.6 5.6-8.8 12.8-8.8 20.8s3.2 15.2 8.8 20.8l38.8 38.8-9.2 9.2z" fill="#4A555F" p-id="5254"></path><path d="M478.548 449.952l64.204 64.2-9.332 9.336-64.204-64.204zM582.8 662.8c-11.2 0-21.6-4.4-29.6-12l-14.4-14.4c-8-8-12-18.4-12-29.6 0-11.2 4.4-21.6 12-29.6l55.2-55.2c8-8 18.4-12 29.6-12 11.2 0 21.6 4.4 29.6 12l14.4 14.4c8 8 12 18.4 12 29.6 0 11.2-4.4 21.6-12 29.6L612 650.8c-7.6 7.6-18.4 12-29.2 12z m40.8-140c-7.6 0-14.8 2.8-20 8.4L548 586.4c-5.2 5.2-8.4 12.4-8.4 20s2.8 14.8 8.4 20l14.4 14.4c5.2 5.2 12.4 8.4 20 8.4s14.8-2.8 20-8.4l55.2-55.2c5.2-5.2 8.4-12.4 8.4-20s-2.8-14.8-8.4-20l-14.4-14.4c-4.8-5.2-12-8.4-19.6-8.4z" fill="#4A555F" p-id="5255"></path><path d="M507.6 981.2c-4.4 0-8.8 0-13.2-0.4l0.4-13.2c4.4 0 8.4 0.4 12.8 0.4v13.2z m13.2 0l-0.4-13.2c4.4 0 8.8-0.4 12.8-0.4l0.8 13.2c-4.4 0-8.8 0-13.2 0.4z m-39.6-1.2l-13.2-1.2 1.2-13.2c4.4 0.4 8.4 0.8 12.8 1.2l-0.8 13.2z m66.4 0l-0.8-13.2c4.4-0.4 8.4-0.8 12.8-1.2l1.2 13.2-13.2 1.2z m-92.8-2.4c-4.4-0.4-8.8-1.2-13.2-1.6l2-12.8c4.4 0.8 8.4 1.2 12.8 1.6l-1.6 12.8z m119.2-0.4l-2-13.2c4.4-0.4 8.4-1.2 12.8-2l2 12.8c-4 1.2-8.4 1.6-12.8 2.4z m-145.6-3.6l-13.2-2.4 2.8-12.8c4.4 0.8 8.4 1.6 12.8 2.4l-2.4 12.8z m171.6-0.8l-2.4-12.8c4.4-0.8 8.4-1.6 12.8-2.4l2.8 12.8-13.2 2.4z m-197.6-4.4c-4.4-1.2-8.8-2-12.8-3.2l3.6-12.8c4 1.2 8.4 2 12.4 3.2l-3.2 12.8z m223.6-1.2l-3.2-12.8c4-1.2 8.4-2 12.4-3.2l3.6 12.8c-4 0.8-8.4 2-12.8 3.2z m-249.2-6c-4.4-1.2-8.4-2.8-12.8-4l4-12.4c4 1.2 8.4 2.8 12.4 4l-3.6 12.4z m274.8-1.2l-4-12.4c4-1.2 8.4-2.8 12.4-4l4.4 12.4c-4.4 1.2-8.4 2.8-12.8 4z m-300.4-7.2c-4-1.6-8.4-3.2-12.4-4.8l4.8-12 12 4.8-4.4 12z m325.6-1.6l-4.8-12.4 12-4.8 4.8 12c-3.6 2.4-8 4-12 5.2z m-350.4-8c-4-1.6-8-3.6-12-5.6l5.6-12c4 2 8 3.6 12 5.2l-5.6 12.4z m375.2-2l-5.2-12c4-1.6 8-3.6 11.6-5.2l5.6 12c-4 1.6-8 3.6-12 5.2zM302.4 932l-12-6 6-11.6c3.6 2 7.6 4 11.6 6l-5.6 11.6z m422.8-2l-6-11.6c4-2 7.6-4 11.2-6l6.4 11.6c-3.6 2-7.6 4-11.6 6z m-446.4-10.8c-4-2.4-7.6-4.4-11.6-6.8l6.8-11.2c3.6 2.4 7.2 4.4 11.2 6.4l-6.4 11.6z m469.6-2l-6.8-11.2c3.6-2 7.2-4.4 11.2-6.8l6.8 11.2c-3.2 2.4-7.2 4.4-11.2 6.8z m-492-12c-3.6-2.4-7.6-4.8-11.2-7.6l7.6-10.8 10.8 7.2-7.2 11.2z m514.8-2l-7.2-10.8 10.8-7.2 7.6 10.8c-4 2.4-7.6 4.8-11.2 7.2z m-536.8-12.8c-3.6-2.8-7.2-5.2-10.8-8l8-10.4c3.2 2.8 6.8 5.2 10.4 8l-7.6 10.4z m558.4-2.4l-8-10.4c3.6-2.4 6.8-5.2 10.4-8l8 10.4c-3.2 2.4-6.8 5.2-10.4 8z m-579.2-14c-3.6-2.8-6.8-5.6-10-8.8l8.8-10c3.2 2.8 6.4 5.6 10 8.4l-8.8 10.4z m600-2.8l-8.4-10 9.6-8.4 8.8 9.6c-3.2 3.2-6.8 6-10 8.8z m-620.4-14.8c-3.2-3.2-6.4-6-9.6-9.2l9.2-9.2c3.2 3.2 6.4 6 9.2 8.8l-8.8 9.6z m640.4-2.8l-8.8-9.6c3.2-2.8 6.4-6 9.2-8.8l9.2 9.2c-3.2 3.2-6.4 6.4-9.6 9.2z m-659.2-16c-3.2-3.2-6-6.4-9.2-9.6l9.6-8.8c2.8 3.2 6 6.4 8.8 9.6l-9.2 8.8z m678-2.8l-9.6-9.2c2.8-3.2 6-6.4 8.8-9.6l9.6 8.8c-2.8 3.6-6 6.8-8.8 10z m-696-16.8c-2.8-3.2-5.6-6.8-8.4-10l10-8.4c2.8 3.2 5.6 6.8 8.4 10l-10 8.4z m713.6-2.8l-10-8.4c2.8-3.2 5.6-6.8 8.4-10l10.4 8c-3.2 3.6-6 7.2-8.8 10.4z m-730.4-17.6c-2.8-3.6-5.2-7.2-8-10.8l10.8-7.6c2.4 3.6 5.2 6.8 7.6 10.4l-10.4 8z m747.2-3.2l-10.4-8c2.8-3.6 5.2-6.8 7.6-10.4l10.8 7.6c-2.8 3.6-5.6 7.2-8 10.8zM124 776c-2.4-3.6-4.8-7.2-7.2-11.2l11.2-7.2 7.2 10.8L124 776z m778-3.2l-10.8-7.2 7.2-10.8 11.2 6.8c-2.8 3.6-5.2 7.6-7.6 11.2z m-792-19.2c-2.4-3.6-4.4-7.6-6.8-11.6l11.6-6.4c2 3.6 4.4 7.6 6.4 11.2l-11.2 6.8z m806.4-3.2l-11.2-6.8c2-3.6 4.4-7.6 6.4-11.2l11.6 6.4c-2.4 3.6-4.8 7.6-6.8 11.6z m-819.6-19.6l-6-12 11.6-5.6c2 4 4 7.6 6 11.6l-11.6 6z m832.4-4l-11.6-6c2-4 4-7.6 5.6-11.6l12 5.6c-2 4.4-4 8-6 12z m-844-20c-2-4-3.6-8-5.2-12l12-5.2c1.6 4 3.6 8 5.2 11.6l-12 5.6z m855.6-4l-12-5.2c1.6-4 3.6-8 5.2-12l12 5.2c-1.6 4-3.6 8-5.2 12z m-866-20.4c-1.6-4-3.2-8.4-4.8-12.4l12.4-4.4c1.6 4 2.8 8 4.4 12l-12 4.8z m876-4l-12.4-4.8c1.6-4 3.2-8 4.4-12l12.4 4.4c-1.2 4-2.8 8-4.4 12.4z m-884.8-21.2c-1.2-4.4-2.8-8.4-4-12.8l12.4-3.6c1.2 4 2.4 8.4 4 12.4l-12.4 4z m893.6-4l-12.4-4c1.2-4 2.4-8.4 3.6-12.4l12.8 3.6c-1.6 4.4-2.8 8.4-4 12.8zM58.4 632c-1.2-4.4-2-8.4-3.2-12.8l12.8-3.2c0.8 4.4 2 8.4 3.2 12.4l-12.8 3.6z m908.4-4.4l-12.8-3.2c1.2-4 2-8.4 2.8-12.4l12.8 2.8c-0.8 4-1.6 8.4-2.8 12.8z m-914.4-21.6l-2.4-13.2 12.8-2.4c0.8 4.4 1.6 8.4 2.4 12.8l-12.8 2.8z m920.4-4.4l-12.8-2.4c0.8-4.4 1.6-8.4 2.4-12.8l12.8 2-2.4 13.2zM47.6 580c-0.8-4.4-1.2-8.8-1.6-13.2l13.2-1.6c0.4 4.4 1.2 8.4 1.6 12.8l-13.2 2z m929.2-4.8l-12.8-1.6c0.4-4.4 1.2-8.4 1.6-12.8l13.2 1.2c-0.8 4.4-1.2 8.8-2 13.2z m-932-21.6c-0.4-4.4-0.8-8.8-0.8-13.2l13.2-0.8c0.4 4.4 0.4 8.8 0.8 12.8l-13.2 1.2z m934.8-4.8l-13.2-1.2c0.4-4.4 0.8-8.4 0.8-12.8l13.2 0.8c0 4.4-0.4 8.8-0.8 13.2z m-936.4-22V520v-6.4h13.2v12.8l-13.2 0.4z m938-4.4l-13.2-0.4v-13.2h13.2V522.4zM56 500.8l-13.2-0.4c0-4.4 0.4-8.8 0.4-13.2l13.2 0.8c0 4-0.4 8.4-0.4 12.8z m911.6-4.4c0-4.4-0.4-8.8-0.8-12.8l13.2-0.8c0.4 4.4 0.4 8.8 0.8 13.2l-13.2 0.4z m-910-21.6l-13.2-1.2 1.2-13.2 13.2 1.6c-0.8 4.4-1.2 8.4-1.2 12.8z m908.4-4.4c-0.4-4.4-0.8-8.4-1.2-12.8l13.2-1.6 1.2 13.2-13.2 1.2z m-905.6-21.2l-12.8-1.6c0.8-4.4 1.2-8.8 2-13.2l12.8 2c-0.8 4-1.6 8.4-2 12.8z m902.8-4.4c-0.8-4.4-1.2-8.4-2-12.8l12.8-2.4c0.8 4.4 1.6 8.8 2 13.2l-12.8 2z m-898.8-21.2l-12.8-2.4c0.8-4.4 1.6-8.8 2.8-13.2l12.8 2.8c-0.8 4.4-2 8.8-2.8 12.8z m894.4-4.4c-0.8-4.4-2-8.4-2.8-12.8l12.8-3.2c1.2 4.4 2 8.8 2.8 12.8l-12.8 3.2zM70 398.4l-12.8-3.2c1.2-4.4 2.4-8.4 3.6-12.8l12.8 3.6c-1.2 4-2.4 8.4-3.6 12.4z m882.8-4.4c-1.2-4-2.4-8.4-3.6-12.4l12.4-3.6c1.2 4.4 2.4 8.4 3.6 12.8l-12.4 3.2zM77.2 373.6l-12.4-4c1.2-4.4 2.8-8.4 4.4-12.8l12.4 4.4c-1.6 4.4-2.8 8.4-4.4 12.4z m868-4c-1.2-4-2.8-8-4.4-12.4l12.4-4.4c1.6 4 2.8 8.4 4.4 12.4l-12.4 4.4zM86 349.2l-12.4-4.8c1.6-4 3.2-8.4 4.8-12.4l12 5.2c-1.6 4-2.8 8-4.4 12z m850.4-4l-4.8-12 12-5.2c1.6 4 3.6 8 5.2 12.4l-12.4 4.8z m-840.8-20L84 320c1.6-3.2 2.8-6.4 4.4-9.6l1.2-2.4 12 5.6-1.6 2.4c-1.2 3.2-2.8 6.4-4.4 9.2z m830.8-4c-2-4-3.6-7.6-5.6-11.6l11.6-6c2 4 4 8 5.6 12l-11.6 5.6z m-11.6-22.8c-2-3.6-4-7.6-6.4-11.2l11.6-6.4c2 4 4.4 7.6 6.4 11.6l-11.6 6z m-12.4-22.4c-2.4-3.6-4.4-7.2-6.8-10.8l11.2-7.2c2.4 3.6 4.8 7.6 7.2 11.2l-11.6 6.8z m-14-21.6c-2.4-3.6-4.8-7.2-7.6-10.4l10.4-7.6c2.8 3.6 5.2 7.2 7.6 10.8l-10.4 7.2z m-15.2-21.2c-2.8-3.6-5.2-6.8-8-10l10-8.4c2.8 3.6 5.6 6.8 8.4 10.4l-10.4 8z m-16.4-20l-8.4-9.6 9.6-8.8c2.8 3.2 6 6.4 8.8 10l-10 8.4z m-17.6-18.8l-9.2-9.2 9.2-9.2c3.2 3.2 6.4 6.4 9.2 9.6l-9.2 8.8z m-18.4-18c-3.2-2.8-6.4-5.6-9.6-8.8l8.8-10c3.2 2.8 6.8 6 10 8.8l-9.2 10z m-19.6-17.2c-3.2-2.8-6.8-5.6-10-8l8-10.4c3.6 2.8 6.8 5.6 10.4 8.4l-8.4 10z m-20.4-15.6c-3.6-2.4-6.8-5.2-10.4-7.6l7.6-10.8c3.6 2.4 7.2 5.2 10.8 7.6l-8 10.8z m-21.2-14.8c-3.6-2.4-7.2-4.8-10.8-6.8l6.8-11.2c3.6 2.4 7.6 4.8 11.2 7.2l-7.2 10.8z m-22.4-13.2c-3.6-2-7.6-4.4-11.2-6.4l6-11.6c4 2 8 4.4 11.6 6.4l-6.4 11.6zM303.2 106.4l-6-11.6 12-6 5.6 12c-4 1.6-7.6 3.6-11.6 5.6z m411.2-3.2c-4-2-7.6-3.6-11.6-5.6l5.6-12c4 2 8 3.6 12 5.6l-6 12z m-388-8l-5.2-12c4-2 8-3.6 12.4-5.2l4.8 12c-4 1.6-8 3.6-12 5.2z m364.8-2.8l-12-4.8 4.8-12c4 1.6 8.4 3.2 12.4 5.2l-5.2 11.6z m-340.8-7.2l-4.8-12.4c4-1.6 8.4-3.2 12.4-4.4l4.4 12.4c-4 1.6-8 3.2-12 4.4z m316.4-2.4c-4-1.6-8-2.8-12.4-4.4l4-12.4c4.4 1.2 8.4 2.8 12.8 4.4l-4.4 12.4z m-292-6l-4-12.4c4.4-1.2 8.4-2.4 12.8-4l3.6 12.8c-4 1.2-8 2.4-12.4 3.6z m267.6-2c-4-1.2-8.4-2.4-12.4-3.6l3.2-12.8c4.4 1.2 8.4 2.4 12.8 3.6l-3.6 12.8z m-242.8-4.8l-3.2-12.8c4.4-1.2 8.4-2 12.8-3.2l2.8 12.8c-4 1.2-8 2-12.4 3.2z m217.6-2c-4-0.8-8.4-2-12.8-2.8l2.8-12.8c4.4 0.8 8.8 2 12.8 2.8l-2.8 12.8z m-192.4-3.6l-2.4-12.8 13.2-2.4 2 12.8c-4 0.8-8.4 1.6-12.8 2.4z m167.2-1.6c-4.4-0.8-8.4-1.6-12.8-2l2-12.8c4.4 0.8 8.8 1.2 13.2 2l-2.4 12.8z m-141.6-2.8l-1.6-12.8c4.4-0.4 8.8-1.2 13.2-1.6l1.2 13.2c-4 0-8.4 0.8-12.8 1.2z m116-0.8c-4.4-0.4-8.4-0.8-12.8-1.2l1.2-13.2 13.2 1.2-1.6 13.2z m-90.4-2l-1.2-13.2c4.4-0.4 8.8-0.8 13.2-0.8l0.8 13.2c-4 0.4-8.4 0.8-12.8 0.8z m64.8-0.4c-4.4-0.4-8.4-0.4-12.8-0.8l0.4-13.2c4.4 0 8.8 0.4 13.2 0.8l-0.8 13.2z m-38.8-0.8l-0.4-13.2h13.2V56h-12.8z" fill="#4A555F" p-id="5256"></path><path d="M226.8 156l-8.4-10.4c3.6-2.8 6.8-5.6 10.4-8l8 10.4c-3.2 2.8-6.8 5.6-10 8z m20.8-15.6L240 129.6l8.4-6 2.4-1.6 7.2 10.8-2.4 1.6c-2.8 2.4-5.6 4-8 6z" fill="#4A555F" p-id="5257"></path><path d="M190.8 188l-9.2-9.2c3.2-3.2 6.4-6.4 9.6-9.2l9.2 9.6c-3.6 2.8-6.4 6-9.6 8.8z" fill="#4A555F" p-id="5258"></path><path d="M512 1024C229.6 1024 0 794.4 0 512c0-88.8 23.2-176.4 66.8-252.8l11.2 6.4C35.6 340.4 13.2 425.6 13.2 512c0 275.2 224 498.8 498.8 498.8S1010.8 787.2 1010.8 512 787.2 13.2 512 13.2c-86 0-170.8 22.4-245.2 64.4l-6.4-11.6C336.8 22.8 423.6 0 512 0c282.4 0 512 229.6 512 512s-229.6 512-512 512z" fill="#4A555F" p-id="5259"></path></svg>