<?xml version="1.0" standalone="no"?><!DOCTYPE svg PUBLIC "-//W3C//DTD SVG 1.1//EN" "http://www.w3.org/Graphics/SVG/1.1/DTD/svg11.dtd"><svg t="1569376858345" class="icon" viewBox="0 0 1024 1024" version="1.1" xmlns="http://www.w3.org/2000/svg" p-id="3778" xmlns:xlink="http://www.w3.org/1999/xlink" width="200" height="200"><defs><style type="text/css"></style></defs><path d="M521.44128 904.35584c-6.0416 0-12.09344-2.304-16.71168-6.92224L90.48064 483.1744a23.62368 23.62368 0 0 1 0-33.41312L358.912 181.31968a23.61344 23.61344 0 0 1 16.64-6.92224l295.7824-0.8192c6.74816-0.39936 12.32896 2.47808 16.77312 6.92224L954.88 447.27296a23.62368 23.62368 0 0 1 0 33.41312L538.14272 897.4336a23.58272 23.58272 0 0 1-16.70144 6.92224zM140.5952 466.47296l380.83584 380.83584 383.32416-383.32416-243.11808-243.11808-276.20352 0.75776-244.8384 244.84864z" fill="#FF0000" p-id="3779"></path><path d="M522.24 622.94016a23.63392 23.63392 0 0 1-16.71168-6.92224L359.58784 470.0672a23.62368 23.62368 0 0 1 0-33.41312l94.57664-94.57664a23.61344 23.61344 0 0 1 16.64-6.92224l104.20224-0.29696c6.58432-0.18432 12.32896 2.47808 16.77312 6.92224l93.99296 93.99296a23.62368 23.62368 0 0 1 0 33.41312L538.95168 616.01792a23.61344 23.61344 0 0 1-16.71168 6.92224z m-112.52736-169.5744L522.24 565.89312l113.408-113.408-70.33856-70.32832-84.6336 0.23552-70.9632 70.97344z" fill="#FF0000" p-id="3780"></path></svg>