<?xml version="1.0" encoding="UTF-8"?>
<svg width="70px" height="70px" viewBox="0 0 70 70" version="1.1" xmlns="http://www.w3.org/2000/svg" xmlns:xlink="http://www.w3.org/1999/xlink">
    <!-- Generator: Sketch 56.2 (81672) - https://sketch.com -->
    <title>icon_kefu</title>
    <desc>Created with Sketch.</desc>
    <g id="关于" stroke="none" stroke-width="1" fill="none" fill-rule="evenodd">
        <g id="06-关于" transform="translate(-821.000000, -3923.000000)">
            <g id="icon_kefu" transform="translate(821.000000, 3923.000000)">
                <g>
                    <rect stroke="#979797" fill="#D8D8D8" opacity="0" x="0.5" y="0.5" width="69" height="69"></rect>
                    <g transform="translate(9.000000, 10.000000)" fill="#666666">
                        <path d="M0,29 L5.41445066,29 L5.41445066,19 L0,19 L0,29 Z M1.12791589,27.9691993 L4.28625939,27.9691993 L4.28625939,20.0310524 L1.12791589,20.0310524 L1.12791589,27.9691993 Z M46.5858247,29 L52,29 L52,19 L46.5858247,19 L46.5858247,29 Z M47.7137406,27.9691993 L50.8720841,27.9691993 L50.8720841,20.0310524 L47.7137406,20.0310524 L47.7137406,27.9691993 Z" id="Fill-1"></path>
                        <path d="M29.9043998,47 L29.674721,45.8836763 C38.8611729,44.4323125 46.4402937,37.6223496 48.5070526,28.8028952 L49.6555869,29.0261872 C47.473533,38.4038375 39.6650138,45.4370923 29.9043998,47 Z M48.8517461,19.7600806 C46.899441,8.93099824 37.3685059,1.11625554 26,1.11625554 C14.7465087,1.11625554 5.10062904,8.93099824 3.14825393,19.7600806 L2,19.5367205 C4.0670393,8.26132668 14.1723467,0 26,0 C37.8276533,0 47.9329607,8.26132668 50,19.6485368 L48.8517461,19.7600806 Z M26,38.7386733 C19.1099858,38.7386733 13.0238124,35.0546621 9.92353384,29.137731 L10.9570535,28.5795351 C13.8276533,34.1616304 19.6841478,37.6223496 26,37.6223496 C32.4305865,37.6223496 38.1723467,34.1616304 41.0429465,28.5795351 L42.0764662,29.137731 C38.9761876,35.0546621 32.8900142,38.7386733 26,38.7386733 Z" id="Fill-2"></path>
                        <path d="M26.5570779,50 C25.8740344,50 25.0772661,49.7714148 24.3945005,49.3141748 C23.5977322,48.7428165 23.1423467,47.9428033 23.0284135,47.0286719 C22.9146887,46.1141917 23.1423467,45.2000603 23.711457,44.4000471 C24.8496081,42.8000207 27.1261188,42.5714356 28.6056527,43.7142219 C30.1991198,44.8572872 30.4268473,47.1427901 29.2886962,48.6286285 C28.7196553,49.5427599 27.695229,50 26.5570779,50 Z M26.5570779,44.171462 C25.8740344,44.171462 25.0772661,44.5142351 24.6218806,45.0855933 C24.2804978,45.5428334 24.0528398,46.2286587 24.166773,46.800017 C24.2804978,47.371445 24.6218806,47.9428033 25.0772661,48.4000434 C26.1016924,49.1999868 27.5815042,48.9714016 28.3782725,47.9428033 C29.1749714,46.9142049 28.9473134,45.4286455 27.922887,44.6286323 C27.5815042,44.2855801 27.1261188,44.171462 26.5570779,44.171462 Z" id="Fill-3"></path>
                    </g>
                </g>
            </g>
        </g>
    </g>
</svg>