<?xml version="1.0" encoding="UTF-8"?>
<svg width="70px" height="70px" viewBox="0 0 70 70" version="1.1" xmlns="http://www.w3.org/2000/svg" xmlns:xlink="http://www.w3.org/1999/xlink">
    <!-- Generator: Sketch 56.2 (81672) - https://sketch.com -->
    <title>icon_service</title>
    <desc>Created with Sketch.</desc>
    <defs>
        <polygon id="path-1" points="0.00462882096 0.0709752547 52.9288705 0.0709752547 52.9288705 52.9998457 0.00462882096 52.9998457"></polygon>
    </defs>
    <g id="关于" stroke="none" stroke-width="1" fill="none" fill-rule="evenodd">
        <g id="06-关于" transform="translate(-1042.000000, -3923.000000)">
            <g id="icon_service" transform="translate(1042.000000, 3923.000000)">
                <g>
                    <rect stroke="#979797" fill="#D8D8D8" opacity="0" x="0.5" y="0.5" width="69" height="69"></rect>
                    <g transform="translate(9.000000, 9.000000)">
                        <g id="shou">
                            <g id="编组">
                                <mask id="mask-2" fill="white">
                                    <use xlink:href="#path-1"></use>
                                </mask>
                                <g id="Clip-2"></g>
                                <path d="M26.4644352,1.06787801 C33.2612152,1.06787801 39.6650243,3.72127078 44.4800764,8.52008914 C49.2951286,13.3351413 51.9319677,19.7223967 51.9319677,26.5354105 C51.9319677,33.3487441 49.2788948,39.7359995 44.4800764,44.5510517 C39.6650243,49.3661039 33.2777689,52.0029429 26.4644352,52.0029429 C19.6514215,52.0029429 13.2641661,49.3498701 8.44911388,44.5510517 C3.63374181,39.7359995 0.996902758,33.3487441 0.996902758,26.5354105 C0.996902758,19.7223967 3.65029552,13.3351413 8.44911388,8.52008914 C13.2476124,3.70471706 19.6514215,1.06787801 26.4644352,1.06787801 L26.4644352,1.06787801 Z M26.4644352,0.0709752547 C11.849936,0.0709752547 0,11.9209112 0,26.5354105 C0,41.1502183 11.849936,52.9998457 26.4644352,52.9998457 C41.0792431,52.9998457 52.9288705,41.1502183 52.9288705,26.5354105 C52.9288705,11.9209112 41.0792431,0.0709752547 26.4644352,0.0709752547 Z" id="Fill-1" fill="#666666" mask="url(#mask-2)"></path>
                            </g>
                        </g>
                        <text id="售" fill="#666666" font-family="PingFangSC-Thin, PingFang SC" font-size="32" font-weight="300">
                            <tspan x="10" y="37">售</tspan>
                        </text>
                    </g>
                </g>
            </g>
        </g>
    </g>
</svg>