<?xml version="1.0" encoding="UTF-8"?>
<svg width="70px" height="70px" viewBox="0 0 70 70" version="1.1" xmlns="http://www.w3.org/2000/svg" xmlns:xlink="http://www.w3.org/1999/xlink">
    <!-- Generator: Sketch 56.2 (81672) - https://sketch.com -->
    <title>icon_international</title>
    <desc>Created with Sketch.</desc>
    <g id="关于" stroke="none" stroke-width="1" fill="none" fill-rule="evenodd">
        <g id="06-关于" transform="translate(-1489.000000, -3921.000000)">
            <g id="icon_international" transform="translate(1489.000000, 3921.000000)">
                <g>
                    <rect stroke="#979797" fill="#D8D8D8" opacity="0" x="0.5" y="0.5" width="69" height="69"></rect>
                    <g transform="translate(11.000000, 10.000000)" stroke="#666666">
                        <path d="M20,49 L20,49 C19.7697515,49 19.5518378,48.9025945 19.4052387,48.7341894 C19.354482,48.6763928 18.8817921,48.1063753 17.9362705,46.2226634 C17.1993053,44.7494558 17.2703364,43.8653965 17.3670294,42.6385992 C17.4075781,42.1316325 17.4535143,41.5566302 17.4535143,40.8176687 C17.4535143,39.0499543 16.8839897,38.5184678 15.6437103,37.3545866 C15.3489526,37.0792107 15.0288165,36.7797191 14.6831602,36.4319963 C12.5634282,34.3017394 12.7057739,32.8770324 13.5700564,29.887236 C14.4544713,26.8440888 13.4175026,26.5592821 11.1453585,25.9264832 C10.2912842,25.6899077 9.32038422,25.4193818 8.39031652,24.9363961 C5.88962535,23.6418325 4.95431184,21.2170688 5.52355297,17.5318268 C5.99624287,14.4791142 4.01531209,11.0338157 4,11" id="Stroke-1" stroke-width="1.3"></path>
                        <path d="M46,14.7122161 C45.7599124,15.328106 44.9900972,16.26927 43.6502928,16.26927 C43.3154091,16.26927 42.9453807,16.2093937 42.540477,16.0741326 C41.1057418,15.5935038 39.6061035,14.4318493 39.6561946,13.2202978 C39.6809709,12.5844491 40.1359658,12.0989655 40.8659235,11.9185274 C41.3559284,11.7986399 41.7557152,11.6182018 42.1155099,11.4579922 C42.7905289,11.1576666 43.5503798,10.8170189 44.3502228,11.3228659 M44.3316406,38.8530256 C44.2216285,38.8880883 43.2904981,38.8995511 43.2004148,38.8995511 C42.8952895,38.8995511 42.6055147,38.7142582 42.4854036,38.4086732 C41.8705748,36.7916081 42.1456723,35.0342921 42.5255304,32.5960853 C42.6556059,31.7700888 42.8004933,30.8286551 42.9305688,29.7872927 C43.0405809,28.8960256 42.9004064,28.4507292 42.7504021,28.3454062 C42.5556929,28.2051554 42.0405078,28.3354268 41.8208876,28.4454698 C41.7856083,28.4656983 39.936005,29.4968116 37.536476,28.255322 C36.4714998,27.7044329 35.2119491,26.4179012 35.2717353,23.4238157 C35.3018978,21.7866569 35.731847,20.059414 36.0917764,19.0729381 L36.2516103,18.6474657 C36.5016623,17.9766891 36.9213779,16.855087 36.7514449,16.5097193 C36.7465974,16.4947502 36.726534,16.454563 36.591611,16.4145106 C34.7919642,15.8738706 33.987139,15.002832 34.5770569,11.7633075 C34.9819606,9.52037297 34.6767006,9.29529736 32.9870659,8.04827865 C32.8172676,7.92313175 32.6322534,7.78800547 32.4421224,7.6428998 C30.3626652,6.080991 30.6626737,3.54744061 31.1125517,2.42098368 C31.2676728,2.0303042 31.7174161,1.84002158 32.1025257,1.99524149 M19.5211568,1 C20.021126,1.38568979 20.4460931,2.08653939 20.4311465,2.38699983 C20.3910197,3.26302811 19.4862815,3.84385536 18.6114363,4.40458898 C18.3215269,4.5898819 17.9966075,4.80025815 17.8713796,4.92527019 C17.7765834,5.02034408 17.5665236,5.26079334 17.6215969,5.47588957 C17.6517594,5.59119194 17.901542,6.1968328 19.9311773,6.79775367 C20.696145,7.02296415 21.2358371,7.5186969 21.485889,8.22453619 C22.1007178,9.95690369 20.9311157,12.9660932 17.8966945,17.4170343 C17.8164409,17.5371915 17.7514031,17.6272757 17.7216447,17.6771726 L17.6465079,17.7973298 C16.7615637,19.1943091 15.6870272,20.6262161 14.3970447,20.6461749 L14.3719991,20.6461749 C13.9471666,20.6461749 13.33732,20.4861001 12.8325033,19.7300942 C12.807323,19.6899069 12.6073623,19.5949679 12.222522,19.64001 C11.6777131,19.704876 11.1525636,20.010461 11.027605,20.3357351 C10.9175929,20.6212264 11.1576805,20.9715838 11.3725878,21.2120331 C14.127064,24.296068 15.3269632,24.6615293 16.2768104,24.2610053 C18.5463986,23.3095922 20.8961058,24.9719691 22.895444,26.7242954 C23.6555641,27.3900823 24.4404606,27.9258674 25.2001768,28.4464138 C26.8249084,29.5580365 28.5095609,30.7097116 29.8443831,33.0578342 C31.6140021,36.1719421 27.9048311,41.0633248 27.4797294,41.6089545 C27.4499709,41.6442869 27.4199431,41.6792147 27.3897807,41.7042981 C27.3097964,41.7741538 25.4402643,43.4465101 22.5605602,45.2338991 C21.2409539,46.0500511 21.8324876,48.9388136 22.1774704,50" id="Stroke-3" stroke-width="1.4"></path>
                        <path d="M24.5,50 C10.9915723,50 0,38.7843823 0,25 C0,11.2160263 10.9915723,0 24.5,0 C38.0082942,0 49,11.2160263 49,25 C49,38.7841099 38.0085612,50 24.5,50 Z" id="Stroke-5" stroke-width="1.4"></path>
                    </g>
                </g>
            </g>
        </g>
    </g>
</svg>