<?xml version="1.0" encoding="UTF-8"?>
<svg width="70px" height="70px" viewBox="0 0 70 70" version="1.1" xmlns="http://www.w3.org/2000/svg" xmlns:xlink="http://www.w3.org/1999/xlink">
    <!-- Generator: Sketch 56.2 (81672) - https://sketch.com -->
    <title>icon_cooperation</title>
    <desc>Created with Sketch.</desc>
    <defs>
        <polygon id="path-1" points="1.44480698e-16 0 52 0 52 52 1.44480698e-16 52"></polygon>
    </defs>
    <g id="关于" stroke="none" stroke-width="1" fill="none" fill-rule="evenodd">
        <g id="06-关于" transform="translate(-1266.000000, -3924.000000)">
            <g id="icon_cooperation" transform="translate(1266.000000, 3924.000000)">
                <g>
                    <rect stroke="#979797" fill="#D8D8D8" opacity="0" x="0.5" y="0.5" width="69" height="69"></rect>
                    <g transform="translate(9.000000, 9.000000)">
                        <mask id="mask-2" fill="white">
                            <use xlink:href="#path-1"></use>
                        </mask>
                        <g id="Clip-2"></g>
                        <path d="M26.0001587,52 C11.6410445,52 0,40.359019 0,26.0001587 C0,11.6410445 11.6410445,0 26.0001587,0 C40.359019,0 52,11.6410445 52,26.0001587 C52,40.359019 40.359019,52 26.0001587,52 Z M26.0001587,1.00001099 C12.1929739,1.00001099 1.00001099,12.1929739 1.00001099,26.0001587 C1.00001099,39.8070261 12.1929739,50.999989 26.0001587,50.999989 C39.8070261,50.999989 50.999989,39.8070261 50.999989,26.0001587 C50.999989,12.1929739 39.8070261,1.00001099 26.0001587,1.00001099 Z M39.0086086,26.6956806 C38.6225437,27.1735327 37.609393,28.2716786 37.1154178,28.8035494 L37.4764729,29.1886621 C38.2384465,29.9647275 38.2103899,31.3337282 37.4144563,32.1817127 L37.4055695,32.191615 C36.9758327,32.6322699 36.3886738,32.8838913 35.7735216,32.8916354 C35.6745616,32.8916354 35.5763632,32.8837008 35.4794344,32.8695455 C35.5703964,33.5305913 35.3405475,34.2556215 34.8034716,34.7946651 C34.3750043,35.2335426 33.7898766,35.4847196 33.1764384,35.4926542 C33.1029959,35.4924003 33.029363,35.4879569 32.9564918,35.4795146 C32.9693776,35.6015167 32.972361,35.7257404 32.9644264,35.8526937 C32.9229762,36.4204923 32.6768138,36.9538865 32.2713885,37.3535989 C31.8431751,37.7919685 31.2584917,38.0426378 30.6455613,38.0505724 C30.5610104,38.0508263 30.476396,38.0456212 30.392353,38.0347032 C30.4863619,38.6925116 30.2614641,39.4136063 29.7293395,39.9476987 C29.3077911,40.3791494 28.7318041,40.6253118 28.1285221,40.6315326 C27.6224863,40.6315326 27.1325101,40.4475773 26.764536,40.0756041 L26.3214056,39.627586 C26.0070058,39.823221 25.6437925,39.9263706 25.2733428,39.9256088 C24.7436937,39.9266245 24.2356267,39.7155646 23.8624475,39.3397195 C23.4248396,38.9050314 23.2113042,38.2933071 23.2834771,37.6806305 C22.6311277,37.8100594 21.9576405,37.6037603 21.4895003,37.1316211 C21.0553836,36.6989643 20.8421021,36.0917467 20.9105299,35.4827519 C20.2604021,35.6091973 19.5901523,35.4023904 19.1245511,34.9315207 C18.6752,34.4857243 18.4624898,33.8544491 18.5505319,33.2276173 C17.8795203,33.3852932 17.17512,33.1826758 16.6903489,32.6925092 C16.3114569,32.3155849 16.0984927,31.8030745 16.0984927,31.2687282 C16.0942398,30.733874 16.3035223,30.2196497 16.679431,29.8395516 L17.2003837,29.3106008 C16.9254029,29.0676122 15.266314,27.5806719 14.7203514,26.6356952 L14.6623338,26.5374968 C14.3744672,26.0597081 13.6095102,24.7896675 13.410384,23.0804955 C13.2951104,22.1209191 13.3890558,21.1474414 13.6863804,20.2275379 C14.0434365,19.1246313 14.6995311,18.0745373 15.6355576,17.1065185 C19.1123636,13.5116459 23.8944398,15.0145189 25.6834654,16.6175579 C25.9204872,16.8305221 26.3204535,17.2146192 26.8733985,17.7615974 C27.4404353,17.20021 28.0216909,16.6532318 28.6165305,16.1216149 C29.4054816,15.4315604 31.0013479,14.6247088 32.9014576,14.6247088 C34.2634759,14.6247088 36.2835564,15.0517162 38.1714787,17.0816991 C40.1296061,19.1876001 40.4474971,21.3557082 40.3693573,22.8044991 C40.2754119,24.5516301 39.5774228,25.9924864 39.0086086,26.6956806 Z M27.4193611,39.4185574 C27.8394495,39.8425179 28.5825705,39.7845003 29.0764822,39.2886208 C29.5714096,38.7917256 29.6324106,38.0436534 29.2123222,37.6186138 L28.7955346,37.1975733 L27.0124758,39.0076732 L27.4193611,39.4185574 Z M24.513337,38.6786737 C24.7174144,38.8826877 24.9864284,38.9945335 25.2733428,38.9945335 C25.5624154,38.9945335 25.8344763,38.8807199 26.0384902,38.6736591 L28.8604712,35.8095296 C29.279544,35.3825857 29.2773223,34.6979902 28.85552,34.2737123 C28.6546799,34.0709044 28.3809687,33.9570908 28.0955777,33.9575969 C27.805426,33.9575969 27.5344442,34.0716027 27.3303668,34.2786635 L24.5083858,37.142539 C24.3060223,37.3471243 24.1934782,37.6238189 24.1954206,37.9116855 C24.1964616,38.2025989 24.3095135,38.4745963 24.513337,38.6786737 Z M22.1414054,36.471591 C22.3444672,36.6746527 22.6144968,36.7867525 22.9003956,36.7867525 C23.1904838,36.7867525 23.4624812,36.672685 23.6663047,36.4656242 L26.4885396,33.6014947 C26.9071046,33.1742969 26.904629,32.4897013 26.4823824,32.0656774 C26.2810345,31.8616 26.0057998,31.7470246 25.7188853,31.7480336 C25.4320344,31.748802 25.1575614,31.8650912 24.9574196,32.0706286 L22.1354386,34.9345041 C21.9331385,35.1390893 21.820531,35.415784 21.8224734,35.7036506 C21.8235144,35.9945005 21.9363124,36.2665614 22.1414054,36.471591 Z M19.7753771,34.2707289 C19.9785024,34.4745524 20.248532,34.5866521 20.5353829,34.5866521 C20.824519,34.5866521 21.0965164,34.4725846 21.3003399,34.2655238 L24.1225748,31.4016482 C24.3253827,31.1956031 24.4364668,30.92259 24.4355207,30.6327557 C24.4357051,30.3446352 24.3206854,30.0686388 24.1163541,29.865577 C23.9150062,29.6614996 23.6397715,29.5469243 23.3529205,29.5479332 C23.0660061,29.5488921 22.7915331,29.6651813 22.5914548,29.8705282 L19.7704259,32.7346577 C19.567872,32.9392429 19.4548201,33.2156837 19.4565147,33.5035502 C19.4575496,33.7946541 19.5713632,34.0666515 19.7753771,34.2707289 Z M17.0223064,31.2645387 C17.0230935,31.7011945 17.2864581,32.0946862 17.690106,32.2613124 C18.0935001,32.4281925 18.5577047,32.3354531 18.8663916,32.0267662 L21.6883726,29.1625732 C21.8914344,28.9565281 22.0025185,28.6835785 22.0015724,28.3936807 C22.0015724,27.7973812 21.5195248,27.3133718 20.9234156,27.3106423 C20.6333274,27.3106423 20.36133,27.4247098 20.1575065,27.6317071 L17.3355255,30.4955827 C17.133162,30.7001679 17.020364,30.9768626 17.0223064,31.2645387 Z M25.0685037,17.3135158 C24.3933027,16.7075678 22.9834865,15.959686 21.2333721,15.841683 C19.9115345,15.7536409 17.9824159,16.0135142 16.2973651,17.7566462 C13.9425087,20.1915467 13.6503892,23.0616429 15.4525545,26.054757 L15.5195223,26.1665393 C15.9395472,26.8945529 17.3394611,28.1985535 17.8433386,28.6396527 L17.7104185,28.793647 L19.5014119,26.9756126 C19.8753528,26.5930389 20.388371,26.3780435 20.9234156,26.3795669 C21.5041634,26.3820425 22.0553311,26.6351874 22.4354927,27.0740648 C22.8155908,27.5129423 22.987676,28.0946423 22.9073145,28.6696771 C23.57858,28.5124455 24.2832342,28.7150629 24.7685131,29.2045313 C25.2028837,29.6371881 25.4164192,30.2442152 25.3484357,30.8536544 C25.9981191,30.7272089 26.6680515,30.9340158 27.1334623,31.4046316 C27.5855429,31.8556332 27.7774328,32.471547 27.7114806,33.0636571 C28.3640839,32.9340378 29.0380154,33.140083 29.5064095,33.6126666 C30.2785394,34.3892398 30.2954241,35.6384601 29.5443685,36.4356632 L29.9455409,36.8405172 C30.1513322,37.0418651 30.4347554,37.1430469 30.7214159,37.1175292 C31.0484475,37.0967089 31.3676081,36.9466501 31.6194834,36.6945209 C31.8704065,36.4415665 32.0204653,36.1207556 32.0424917,35.7916927 C32.0692788,35.5035722 31.9701283,35.2179273 31.7704943,35.0086448 L31.7655431,35.0036937 L28.1005289,31.1787183 L28.0705044,31.1487573 L28.7253929,30.4906315 L32.4774336,34.2816469 C32.682971,34.4832487 32.9666481,34.5844305 33.253499,34.5585955 C33.5805942,34.5385368 33.8994373,34.3875259 34.1503605,34.1355871 C34.654492,33.6305035 34.722412,32.8734811 34.302387,32.4495206 L30.631406,28.7455317 L30.9135597,28.4616007 L31.2815337,28.0696325 L35.0685501,31.6785968 L35.0735013,31.683548 C35.492574,32.1065563 36.241408,32.0406041 36.7474437,31.5365361 C37.1905742,31.0596996 37.2245342,30.2525941 36.817395,29.8405038 L36.8084448,29.8325692 L33.9146082,26.7465254 L33.9185438,26.7415742 L30.7695312,23.4345682 L28.5495626,25.5106987 C27.0774759,26.9396848 25.2033916,27.0576879 25.0233718,27.0656224 C24.9363453,27.0715893 24.8463355,27.0755883 24.7585473,27.0755883 C22.5373727,27.0755883 20.5564572,25.0237059 20.4724141,24.9366794 L20.1654411,24.6135833 L20.4724141,24.2915028 C20.6504661,24.1055163 23.7233702,20.8826169 26.2123527,18.4124869 C25.8386658,18.0382921 25.4572981,17.6718414 25.0685037,17.3135158 Z M37.4975472,17.7186872 C36.1635221,16.2835439 34.6165329,15.5565459 32.9014576,15.5565459 C31.2555083,15.5565459 29.8915223,16.2396815 29.222542,16.8245553 C27.4184089,18.4025845 22.7404344,23.2647047 21.4644905,24.5965081 C22.0615518,25.122666 23.3975446,26.1434973 24.7585473,26.1434973 C24.8265307,26.1434973 24.8944507,26.1415295 24.960403,26.1365783 L24.9804616,26.1355627 C24.9963308,26.1345471 26.6584031,26.0557091 27.9103529,24.8375289 L27.9175257,24.8315621 L30.8074267,22.1296154 L36.4975362,28.1045446 C37.0023659,27.5605498 37.9413759,26.5416863 38.2924651,26.1065539 C38.7734911,25.5126664 39.3643952,24.2776015 39.4464705,22.7537178 C39.5143905,21.4866606 39.2324907,19.5835674 37.4975472,17.7186872 Z" id="Fill-1" fill="#666666" mask="url(#mask-2)"></path>
                    </g>
                </g>
            </g>
        </g>
    </g>
</svg>