<?xml version="1.0" encoding="UTF-8"?>
<svg width="50px" height="50px" viewBox="0 0 50 50" version="1.1" xmlns="http://www.w3.org/2000/svg" xmlns:xlink="http://www.w3.org/1999/xlink">
    <!-- Generator: Sketch 56.2 (81672) - https://sketch.com -->
    <title>logo_ins_nor</title>
    <desc>Created with Sketch.</desc>
    <g id="关于" stroke="none" stroke-width="1" fill="none" fill-rule="evenodd">
        <g id="06-关于" transform="translate(-1377.000000, -4151.000000)">
            <g id="logo_ins_nor" transform="translate(1377.000000, 4151.000000)">
                <g>
                    <rect stroke="#979797" fill="#D8D8D8" opacity="0" x="0.5" y="0.5" width="49" height="49"></rect>
                    <g transform="translate(5.000000, 5.000000)" fill-rule="nonzero">
                        <rect id="矩形" fill="#000000" opacity="0" x="0" y="0" width="40" height="40"></rect>
                        <path d="M0,20 C0,31.045695 8.954305,40 20,40 C31.045695,40 40,31.045695 40,20 C40,8.954305 31.045695,0 20,0 C8.954305,0 0,8.954305 0,20 Z" id="路径" fill="#666666"></path>
                        <path d="M20,14 C16.7692308,14 14,16.6153846 14,20 C14,23.2307692 16.6153846,26 20,26 C23.2307692,26 26,23.3846154 26,20 C26,16.7692308 23.2307692,14 20,14 Z M20,23.8461538 C17.8461538,23.8461538 16.1538462,22.1538462 16.1538462,20 C16.1538462,17.8461539 17.8461539,16.1538462 20,16.1538462 C22.1538462,16.1538462 23.8461538,17.8461539 23.8461538,20 C23.8461538,22.1538462 22.1538462,23.8461538 20,23.8461538 Z M26.1538462,12.4615385 C25.3846154,12.4615385 24.7692308,13.0769231 24.7692308,13.8461538 C24.7692308,14.6153846 25.3846154,15.2307692 26.1538462,15.2307692 C26.923077,15.2307692 27.5384615,14.6153846 27.5384615,13.8461538 C27.5384615,13.076923 26.9230769,12.4615385 26.1538462,12.4615385 Z" id="形状" fill="#FFFFFF"></path>
                        <path d="M25.3846154,8.46153848 L24.7692308,8.46153848 C22.923077,8.3076923 17.0769231,8.3076923 15.2307692,8.46153848 C11.6923077,8.3076923 8.61538461,11.0769231 8.46153848,14.6153846 L8.46153848,15.2307692 C8.3076923,17.076923 8.3076923,22.9230769 8.46153848,24.7692308 C8.3076923,28.3076923 11.0769231,31.3846154 14.6153846,31.5384615 L15.2307692,31.5384615 C17.076923,31.6923077 22.9230769,31.6923077 24.7692308,31.5384615 C28.3076923,31.6923077 31.3846154,28.9230769 31.5384615,25.3846154 L31.5384615,24.7692308 L31.5384615,15.2307692 C31.6923077,11.6923077 28.9230769,8.61538461 25.3846154,8.46153848 Z M29.0769231,26.7692308 C28.6153846,27.8461539 27.8461539,28.6153846 26.9230769,28.9230769 C22.4615384,29.5384615 17.8461538,29.5384615 13.2307692,28.9230769 C12.1538461,28.4615384 11.3846154,27.6923077 11.0769231,26.7692308 C10.6153846,24.4615385 10.4615385,22.1538462 10.6153846,20 C10.4615384,17.6923077 10.6153846,15.3846154 11.0769231,13.2307692 C11.5384616,12.1538461 12.3076923,11.3846154 13.2307692,11.0769231 C17.6923077,10.4615385 22.3076923,10.4615385 26.9230769,11.0769231 C28,11.5384616 28.7692307,12.3076923 29.0769231,13.2307692 C29.5384616,15.5384615 29.6923077,17.8461538 29.5384615,20 C29.6923077,22.3076923 29.5384615,24.6153846 29.0769231,26.7692308 Z" id="形状" fill="#FFFFFF"></path>
                    </g>
                </g>
            </g>
        </g>
    </g>
</svg>