<?xml version="1.0" encoding="UTF-8"?>
<svg width="50px" height="50px" viewBox="0 0 50 50" version="1.1" xmlns="http://www.w3.org/2000/svg" xmlns:xlink="http://www.w3.org/1999/xlink">
    <!-- Generator: Sketch 56.2 (81672) - https://sketch.com -->
    <title>logo_weibo_nor</title>
    <desc>Created with Sketch.</desc>
    <g id="关于" stroke="none" stroke-width="1" fill="none" fill-rule="evenodd">
        <g id="06-关于" transform="translate(-987.000000, -4151.000000)">
            <g id="logo_weibo_nor" transform="translate(987.000000, 4151.000000)">
                <g>
                    <rect stroke="#979797" fill="#D8D8D8" opacity="0" x="0.5" y="0.5" width="49" height="49"></rect>
                    <g transform="translate(5.000000, 9.000000)" fill="#666666">
                        <path d="M15.1977667,16.8328787 C8.86243086,17.5833228 9.59066178,23.7968122 9.59066178,23.7968122 C9.59066178,23.7968122 9.52484791,25.7407439 11.2945401,26.7462451 C15.015709,28.8773187 18.8535769,27.6241709 20.8053268,24.9902998 C22.7567126,22.3560534 21.5990075,16.0146132 15.1977667,16.8328787 Z M13.6759462,25.5531328 C12.5181501,25.6806145 11.5420475,24.9301704 11.5420475,23.9243877 C11.5420475,22.8587571 12.3360923,21.7932203 13.5521469,21.6656448 C14.899101,21.5381631 15.8093897,22.3560534 15.8093897,23.4215902 C15.8093897,24.4872208 14.8336513,25.4252759 13.6759462,25.5531328 Z M17.3971151,22.1611255 C17.0258084,22.4762182 16.4796352,22.4083969 16.2975775,22.0331748 C16.0497969,21.6579528 16.1080554,21.0951197 16.5376206,20.780027 C17.0258084,20.4726263 17.5137231,20.5322866 17.7028811,20.9075087 C17.9432883,21.2827307 17.7612306,21.8455638 17.3971151,22.1611255 Z M32.2674994,0.383237939 C30.0757064,-0.179595131 27.75975,0.00801589262 27.0898686,0.135497583 C27.0898686,0.135497583 27.0244188,0.07536825 26.9661604,0.07536825 C26.9078109,0.07536825 26.9078109,0.0153327225 26.9078109,0.0153327225 C26.2961879,0.202943746 25.8083642,0.773468868 25.8083642,1.52391296 C25.8083642,2.40183874 26.4782456,3.09215351 27.3302758,3.09215351 C27.3302758,3.09215351 28.1893152,2.96467181 28.7354884,2.71693146 C29.2816616,2.52932044 33.9134833,2.52932044 36.2289845,6.60441947 C37.510853,9.55338334 36.7751577,11.5570691 36.7172633,11.8721618 C36.7172633,11.8721618 36.4110422,12.6302979 36.4110422,13.380742 C36.4110422,14.2587616 37.0813788,15.3844278 37.9333179,15.3844278 C38.6031993,15.3844278 39.2148223,15.8871315 39.39688,14.6339837 C41.8365446,6.0415864 36.3531479,1.39596224 32.2674994,0.383237939 Z" id="Fill-3"></path>
                        <path d="M31.7196496,13.3714827 C32.2669616,13.3714827 32.6973313,12.9435903 32.7558025,12.4493008 L32.7558025,12.3239763 C33.5511381,5.16766064 27.0125835,6.3996956 27.0125835,6.3996956 C26.4652714,6.3996956 25.9764305,6.82758798 25.9764305,7.44757084 C25.9764305,8.00087996 26.4652714,8.49507722 27.0125835,8.49507722 C31.7196496,7.44757084 30.6759255,12.1985596 30.6830405,12.3239763 C30.6830405,12.8772854 31.1063864,13.3714827 31.7196496,13.3714827 Z M28.7275858,16.0127037 C27.2021359,15.7101359 27.9318853,14.9060855 27.9318853,14.9060855 C27.9318853,14.9060855 29.398864,12.375434 27.6254817,10.5901822 C25.4291185,8.3697527 20.1162692,10.8999431 20.1162692,10.8999431 C18.1023432,11.5195571 18.5912753,10.5901822 18.8976789,8.98936669 C18.8976789,7.0786981 18.2847806,3.92852487 12.8480563,5.78008161 C7.47007684,7.6907502 2.82859697,14.2936645 2.82859697,14.2936645 C-0.411490389,18.6686797 0.0189705412,22.0619401 0.0189705412,22.0619401 C0.814671049,29.5871285 8.63019596,31.6231216 14.6799097,32.1176877 C21.0284559,32.6119772 29.6397725,29.8378697 32.2669616,24.1646069 C34.8936946,18.4914363 30.1286134,16.2710069 28.7275858,16.0127037 Z M15.1612707,29.9560012 C8.80515338,30.2657621 3.6751975,26.9978262 3.6751975,22.6819229 C3.6751975,18.3660196 8.81263331,14.9132785 15.1612707,14.6035176 C21.4592817,14.2936645 26.5892376,17.0087524 26.6477088,21.2579819 C26.6477088,25.573793 21.510273,29.6462403 15.1612707,29.9560012 Z" id="Fill-4"></path>
                    </g>
                </g>
            </g>
        </g>
    </g>
</svg>