<?xml version="1.0" encoding="UTF-8"?>
<svg width="50px" height="50px" viewBox="0 0 50 50" version="1.1" xmlns="http://www.w3.org/2000/svg" xmlns:xlink="http://www.w3.org/1999/xlink">
    <!-- Generator: Sketch 56.2 (81672) - https://sketch.com -->
    <title>logo_line_nor</title>
    <desc>Created with Sketch.</desc>
    <g id="关于" stroke="none" stroke-width="1" fill="none" fill-rule="evenodd">
        <g id="06-关于" transform="translate(-1509.000000, -4151.000000)">
            <g id="logo_line_nor" transform="translate(1509.000000, 4151.000000)">
                <g>
                    <rect stroke="#979797" fill="#D8D8D8" opacity="0" x="0.5" y="0.5" width="49" height="49"></rect>
                    <g transform="translate(4.000000, 5.000000)" fill-rule="nonzero">
                        <rect id="矩形" fill="#000000" opacity="0" x="0" y="0" width="40" height="40"></rect>
                        <path d="M32.275,16.4383333 C32.8390878,16.4608027 33.2848086,16.9246315 33.2848086,17.4891667 C33.2848086,18.0537018 32.8390878,18.5175306 32.275,18.54 L29.35,18.54 L29.35,20.415 L32.275,20.415 C32.6598055,20.3996598 33.0221309,20.596207 33.2190989,20.9271363 C33.4160669,21.2580656 33.4160669,21.6702677 33.2190989,22.001197 C33.0221309,22.3321263 32.6598055,22.5286735 32.275,22.5133333 L28.2983333,22.5133333 C27.7214166,22.5096789 27.2551504,22.0419254 27.2533333,21.465 L27.2533333,13.5133333 C27.2533333,12.9383333 27.7233333,12.4633333 28.3033333,12.4633333 L32.28,12.4633333 C32.859899,12.464714 33.3288807,12.9359343 33.3275,13.5158333 C33.3261193,14.0957323 32.854899,14.564714 32.275,14.5633333 L29.35,14.5633333 L29.35,16.4383333 L32.275,16.4383333 Z M25.85,21.465 C25.8472455,22.0435963 25.3769354,22.510925 24.7983333,22.51 C24.4641782,22.5172496 24.1472806,22.3619077 23.9483333,22.0933333 L19.8766667,16.565 L19.8766667,21.465 C19.8386119,22.0154815 19.380962,22.4425863 18.8291667,22.4425863 C18.2773714,22.4425863 17.8197215,22.0154815 17.7816653,21.465 L17.7816653,13.5133333 C17.7807417,12.9374926 18.2458318,12.4694212 18.8216667,12.4666667 C19.1466667,12.4666667 19.4466667,12.64 19.6466667,12.89 L23.75,18.44 L23.75,13.5133333 C23.75,12.9383333 24.22,12.4633333 24.8,12.4633333 C25.375,12.4633333 25.85,12.9383333 25.85,13.5133333 L25.85,21.465 Z M16.2816667,21.465 C16.2789183,22.0441368 15.8091426,22.5124235 15.23,22.5133333 C14.6530833,22.5096789 14.1868171,22.0419254 14.185,21.465 L14.185,13.5133333 C14.185,12.9383333 14.655,12.4633333 15.235,12.4633333 C15.8116667,12.4633333 16.2816667,12.9383333 16.2816667,13.5133333 L16.2816667,21.465 Z M12.1716667,22.5133333 L8.195,22.5133333 C7.61725901,22.5097061 7.14954503,22.0427345 7.145,21.465 L7.145,13.5133333 C7.145,12.9383333 7.62,12.4633333 8.195,12.4633333 C8.775,12.4633333 9.245,12.9383333 9.245,13.5133333 L9.245,20.415 L12.1716667,20.415 C12.734847,20.4374511 13.1798418,20.900539 13.1798418,21.4641667 C13.1798418,22.0277943 12.734847,22.4908822 12.1716667,22.5133333 L12.1716667,22.5133333 Z M40,17.19 C40,8.23833332 31.025,0.95333332 20,0.95333332 C8.975,0.95333332 0,8.23833332 0,17.19 C0,25.2083333 7.11666668,31.9266667 16.725,33.2033333 C17.3766667,33.34 18.2633333,33.6333333 18.4883333,34.1866667 C18.6883333,34.6883334 18.62,35.4633334 18.5516667,35.9866667 L18.2783333,37.6866667 C18.2033333,38.1883334 17.8783333,39.6633334 20.0266667,38.7616667 C22.1783334,37.8633334 31.5533334,31.965 35.7533333,27.1366667 C38.6266667,23.9883333 40,20.7633333 40,17.19 L40,17.19 Z" id="形状" fill="#666666"></path>
                    </g>
                </g>
            </g>
        </g>
    </g>
</svg>