<?xml version="1.0" encoding="UTF-8"?>
<svg width="50px" height="50px" viewBox="0 0 50 50" version="1.1" xmlns="http://www.w3.org/2000/svg" xmlns:xlink="http://www.w3.org/1999/xlink">
    <!-- Generator: Sketch 56.2 (81672) - https://sketch.com -->
    <title>logo_weixin_nor</title>
    <desc>Created with Sketch.</desc>
    <g id="关于" stroke="none" stroke-width="1" fill="none" fill-rule="evenodd">
        <g id="06-关于" transform="translate(-847.000000, -4151.000000)">
            <g id="logo_weixin_nor" transform="translate(847.000000, 4151.000000)">
                <g>
                    <rect stroke="#979797" fill="#D8D8D8" opacity="0" x="0.5" y="0.5" width="49" height="49"></rect>
                    <g transform="translate(3.000000, 3.000000)" fill-rule="nonzero">
                        <rect id="矩形" fill="#000000" opacity="0" x="0" y="0" width="44" height="44"></rect>
                        <path d="M29.4229815,15.910223 C29.6164191,15.910223 29.8086707,15.9145792 30,15.9218247 C28.7815278,10.2754583 23.0308011,6 16.119449,6 C8.32146413,6 2,11.4424704 2,18.1560121 C2,22.078442 4.15842768,25.5662762 7.50783163,27.7889954 L6.09715173,32 L10.7683791,29.4077167 C12.4187915,29.9901114 14.2253069,30.3120243 16.1194051,30.3120243 C16.4845382,30.3120243 16.8464211,30.3001115 17.2045266,30.2766414 C16.8093939,29.2176005 16.5953124,28.0890384 16.5953124,26.9174924 C16.5954003,20.8383973 22.3384843,15.910223 29.4229815,15.910223 Z M20.9921079,12.0092184 C22.1436412,12.0092184 23.0771839,12.9539319 23.0771839,14.1193436 C23.0771839,15.284711 22.1436852,16.2294689 20.9921079,16.2294689 C19.8405307,16.2294689 18.9070319,15.2847554 18.9070319,14.1193436 C18.9070758,12.9539319 19.8405746,12.0092184 20.9921079,12.0092184 Z M11.2920748,16.2294244 C10.1405415,16.2294244 9.20699881,15.284711 9.20699881,14.1192992 C9.20699881,12.9539318 10.1404976,12.0091739 11.2920748,12.0091739 C12.4436521,12.0091739 13.3771509,12.9538874 13.3771509,14.1192992 C13.3771509,15.2846665 12.4436521,16.2294244 11.2920748,16.2294244 Z" id="形状" fill="#666666"></path>
                        <path d="M42,27.1616074 C42,21.549495 36.6274292,17 29.9999779,17 C23.3725265,17 18,21.549495 18,27.1616074 C18,32.7737199 23.3725708,37.3232149 30.0000221,37.3232149 C31.391568,37.3232149 32.7274044,37.1219512 33.9702145,36.753115 L38.0731373,39 L36.8806868,35.4872469 C39.9759734,33.6494685 42,30.6058744 42,27.1616074 Z M26.2508111,25.7034393 C25.3227159,25.7034393 24.5703711,24.9520785 24.5703711,24.0251971 C24.5703711,23.0983156 25.3227158,22.3469548 26.2508111,22.3469548 C27.1789062,22.3469548 27.931251,23.0983156 27.931251,24.0251971 C27.931251,24.9520785 27.1789062,25.7034393 26.2508111,25.7034393 Z M34.0685906,25.7034393 C33.1404954,25.7034393 32.3881506,24.9520785 32.3881506,24.0251971 C32.3881506,23.0983156 33.1404954,22.3469548 34.0685906,22.3469548 C34.9966858,22.3469548 35.7490305,23.0983156 35.7490305,24.0251971 C35.7490305,24.9520785 34.9966416,25.7034393 34.0685906,25.7034393 Z" id="形状" fill="#666666"></path>
                    </g>
                </g>
            </g>
        </g>
    </g>
</svg>