<?xml version="1.0" encoding="UTF-8"?>
<svg width="50px" height="50px" viewBox="0 0 50 50" version="1.1" xmlns="http://www.w3.org/2000/svg" xmlns:xlink="http://www.w3.org/1999/xlink">
    <!-- Generator: Sketch 56.2 (81672) - https://sketch.com -->
    <title>logo_facebook_nor</title>
    <desc>Created with Sketch.</desc>
    <g id="关于" stroke="none" stroke-width="1" fill="none" fill-rule="evenodd">
        <g id="06-关于" transform="translate(-1244.000000, -4151.000000)">
            <g id="logo_facebook_nor" transform="translate(1244.000000, 4151.000000)">
                <g>
                    <rect stroke="#979797" fill="#D8D8D8" opacity="0" x="0.5" y="0.5" width="49" height="49"></rect>
                    <g transform="translate(14.000000, 5.000000)" fill="#666666" id="Fill-2">
                        <path d="M13.7935343,21.7195915 L20.1313993,21.7195915 L21.0633011,14.660716 L13.7935343,14.660716 L13.7935343,10.1357136 C13.7935343,8.14458444 14.3530622,6.69686207 17.3355802,6.69686207 L21.25,6.69686207 L21.25,0.362013444 C20.5042283,0.362013444 18.267482,0 15.6577929,0 C10.0656997,0 6.33752369,3.25801053 6.33752369,9.41157626 L6.33752369,14.660716 L0,14.660716 L0,21.7195915 L6.33752369,21.7195915 L6.33752369,40 L13.9801194,40 L13.9801194,21.7195915 L13.7935343,21.7195915 Z"></path>
                    </g>
                </g>
            </g>
        </g>
    </g>
</svg>