<?xml version="1.0" encoding="UTF-8"?>
<svg width="50px" height="50px" viewBox="0 0 50 50" version="1.1" xmlns="http://www.w3.org/2000/svg" xmlns:xlink="http://www.w3.org/1999/xlink">
    <!-- Generator: Sketch 56.2 (81672) - https://sketch.com -->
    <title>logo_twitter_nor</title>
    <desc>Created with Sketch.</desc>
    <g id="关于" stroke="none" stroke-width="1" fill="none" fill-rule="evenodd">
        <g id="06-关于" transform="translate(-1112.000000, -4151.000000)">
            <g id="logo_twitter_nor" transform="translate(1112.000000, 4151.000000)">
                <g>
                    <rect stroke="#979797" fill="#D8D8D8" opacity="0" x="0.5" y="0.5" width="49" height="49"></rect>
                    <g transform="translate(5.000000, 5.000000)" fill-rule="nonzero">
                        <rect id="矩形" fill="#000000" opacity="0" x="0" y="0" width="40" height="40"></rect>
                        <path d="M37.4333333,10 C36.15,10.5833333 34.7666667,10.9666667 33.3333333,11.15 C34.8,10.2666667 35.9333333,8.86666668 36.4666667,7.18333332 C35.0833333,8.01666668 33.55,8.6 31.9333333,8.93333332 C30.6166667,7.5 28.7666667,6.66666668 26.6666667,6.66666668 C22.75,6.66666668 19.55,9.86666668 19.55,13.8166667 C19.55,14.3833333 19.6166667,14.9333333 19.7333333,15.45 C13.8,15.15 8.51666668,12.3 5,7.98333332 C4.38333332,9.03333332 4.03333332,10.2666667 4.03333332,11.5666667 C4.03333332,14.05 5.28333332,16.25 7.21666668,17.5 C6.03333332,17.5 4.93333332,17.1666667 3.96666668,16.6666667 C3.96666668,16.6666667 3.96666668,16.6666667 3.96666668,16.7166667 C3.96666668,20.1833333 6.43333332,23.0833333 9.7,23.7333333 C9.1,23.9 8.46666668,23.9833333 7.81666668,23.9833333 C7.36666668,23.9833333 6.91666668,23.9333333 6.48333332,23.85 C7.38333332,26.6666667 10,28.7666667 13.15,28.8166667 C10.7166667,30.75 7.63333332,31.8833333 4.26666668,31.8833333 C3.7,31.8833333 3.13333332,31.85 2.56666668,31.7833333 C5.73333332,33.8166667 9.5,35 13.5333333,35 C26.6666667,35 33.8833333,24.1 33.8833333,14.65 C33.8833333,14.3333333 33.8833333,14.0333333 33.8666667,13.7166667 C35.2666667,12.7166667 36.4666667,11.45 37.4333333,10 Z" id="路径" fill="#666666"></path>
                    </g>
                </g>
            </g>
        </g>
    </g>
</svg>