<?xml version="1.0" encoding="UTF-8"?>
<svg width="114px" height="114px" viewBox="0 0 114 114" version="1.1" xmlns="http://www.w3.org/2000/svg" xmlns:xlink="http://www.w3.org/1999/xlink">
    <!-- Generator: Sketch 56.2 (81672) - https://sketch.com -->
    <title>btn_dianzan_nor</title>
    <desc>Created with Sketch.</desc>
    <g id="博客" stroke="none" stroke-width="1" fill="none" fill-rule="evenodd">
        <g id="05.1.1.1_详情" transform="translate(-633.000000, -9453.000000)">
            <g id="btn_dianzan_nor" transform="translate(633.000000, 9453.000000)">
                <g>
                    <rect stroke="#979797" fill="#D8D8D8" opacity="0" x="0.5" y="0.5" width="113" height="113"></rect>
                    <circle id="椭圆形" fill="#C9A060" cx="57" cy="57" r="56"></circle>
                    <g id="赞" transform="translate(35.000000, 35.000000)" fill="#FFFFFF" fill-rule="nonzero">
                        <path d="M43.8096988,17.5833946 C42.6987509,16.5584129 41.2373255,16.5584129 40.8603968,16.5782513 L31.5694342,16.5782513 C33.0771492,10.196914 32.8390889,5.4952241 30.8618663,2.58559882 C29.3210874,0.317413666 27.2975753,0.0330639236 27.0727406,0.00661278472 C27.0264511,-3.55271368e-15 26.9735489,-3.55271368e-15 26.9272594,-3.55271368e-15 C25.4195445,-3.55271368e-15 24.3152094,0.482733284 23.6605437,1.43497428 C23.1182954,2.22189566 23.0587803,3.07494489 23.0257164,3.5907421 C23.0257164,3.63703159 23.0191036,3.68993387 23.0191036,3.72961058 C22.9728141,3.86186627 22.9529758,4.00073475 22.9529758,4.13960323 C22.9529758,11.0830272 15.3747245,16.7766348 15.2953711,16.8361499 C14.958119,17.0874357 14.7597355,17.47759 14.7597355,17.9008082 L14.7597355,39.7825129 C14.7597355,41.2174871 15.5863336,42.4408523 17.0808229,43.2277737 C18.2182219,43.8295371 19.4614254,44.0411462 20.182219,44.0411462 L36.7472447,44.0411462 C37.9507715,44.0411462 38.9955915,43.1351947 39.9279941,41.2703894 C40.483468,40.1660544 40.8207201,39.0749449 40.8405584,39.0286554 C40.8405584,39.0220426 40.8471712,39.0154298 40.8471712,39.008817 C44.9537105,25.0558413 45,20.7310801 45,20.5591477 C44.9867744,18.9919177 44.3453343,18.0793534 43.8096988,17.5833946 L43.8096988,17.5833946 Z M38.3012491,38.2483468 C38.2747979,38.334313 38.0367377,39.0617193 37.6730345,39.8420279 C37.137399,40.9794269 36.7604702,41.3166789 36.6480529,41.3960323 L20.1756062,41.3960323 C19.4614254,41.3960323 17.3982366,40.8405584 17.3982366,39.7825129 L17.3982366,18.5422483 C18.1719324,17.907421 19.6796473,16.5848641 21.193975,14.7597355 C22.4570169,13.2321822 23.4621602,11.671565 24.1895665,10.104335 C25.0889052,8.17340191 25.5584129,6.23585599 25.5914769,4.35121234 C25.6377663,4.1528288 25.6509919,3.95444526 25.6642175,3.7626745 C25.6840558,3.47832476 25.7038942,3.12123439 25.8361499,2.9426892 C25.95518,2.76414401 26.3188832,2.65833946 26.8280676,2.64511389 C27.0330639,2.69801616 27.9324026,2.96914034 28.6796473,4.07347539 C29.3739897,5.09184423 29.7773696,6.52020573 29.8765614,8.33210874 C30.0154298,10.7986774 29.5855988,13.9066863 28.5936811,17.5569434 C28.4878766,17.9537105 28.56723,18.3769287 28.8185158,18.707568 C29.0698016,19.0382072 29.4599559,19.2233652 29.8699486,19.2233652 L40.8670096,19.2233652 C40.913299,19.2233652 40.9595885,19.2233652 41.005878,19.2167524 C41.0124908,19.2167524 41.6671565,19.196914 42.0242469,19.5275533 C42.235856,19.719324 42.3416605,20.0631888 42.3416605,20.5393093 C42.3350478,20.6649522 42.2094048,24.9500367 38.3012491,38.2483468 L38.3012491,38.2483468 Z M9.31080088,16.5848641 L2.70462895,16.5848641 C0.972079353,16.5848641 0.0198383542,17.9470977 0,19.2233652 L0,19.3225569 L1.36223365,41.3497428 C1.38868479,43.0889052 2.77736958,44.0279206 4.09331374,44.0279206 L9.80675974,44.0279206 C10.7656135,44.0279206 11.3475386,43.6443791 11.6649522,43.3203527 C12.1410727,42.8376194 12.3130051,42.2027921 12.3063924,41.7729611 L12.3063924,19.5804555 C12.3063924,18.4959589 11.8501102,17.8214548 11.4731815,17.4445261 C10.6465834,16.6377663 9.57531227,16.5848641 9.31080088,16.5848641 Z M4.09975842,41.4148797 L4.1311766,41.4148797 L4.09975842,41.4148797 Z M9.66127847,41.3960323 L4.11976488,41.3960323 C4.08670096,41.3960323 4.04702425,41.3828068 4.01396032,41.3695812 L4.01396032,41.3100661 L4.01396032,41.2307127 L2.65833946,19.2696547 C2.65833946,19.2564291 2.66495224,19.2432035 2.66495224,19.229978 L9.31741367,19.229978 C9.66789126,19.2498163 9.66789126,19.3952976 9.66789126,19.5804555 L9.66789126,41.3960323 L9.66127847,41.3960323 Z" id="形状"></path>
                    </g>
                </g>
            </g>
        </g>
    </g>
</svg>