<?xml version="1.0" encoding="UTF-8"?>
<svg width="114px" height="114px" viewBox="0 0 114 114" version="1.1" xmlns="http://www.w3.org/2000/svg" xmlns:xlink="http://www.w3.org/1999/xlink">
    <!-- Generator: Sketch 56.2 (81672) - https://sketch.com -->
    <title>btn_dianzan_sel</title>
    <desc>Created with Sketch.</desc>
    <g id="博客" stroke="none" stroke-width="1" fill="none" fill-rule="evenodd">
        <g id="05.1.1.1_详情_评论反馈" transform="translate(-633.000000, -9453.000000)">
            <g id="btn_dianzan_sel" transform="translate(633.000000, 9453.000000)">
                <g>
                    <rect stroke="#979797" fill="#D8D8D8" opacity="0" x="0.5" y="0.5" width="113" height="113"></rect>
                    <circle id="椭圆形" fill="#E4E3E0" cx="57" cy="57" r="56"></circle>
                    <path d="M78.8096988,52.5833946 C77.6987509,51.5584129 76.2373255,51.5584129 75.8603968,51.5782513 L66.5694342,51.5782513 C68.0771492,45.196914 67.8390889,40.4952241 65.8618663,37.5855988 C64.3210874,35.3174137 62.2975753,35.0330639 62.0727406,35.0066128 C62.0264511,35 61.9735489,35 61.9272594,35 C60.4195445,35 59.3152094,35.4827333 58.6605437,36.4349743 C58.1182954,37.2218957 58.0587803,38.0749449 58.0257164,38.5907421 C58.0257164,38.6370316 58.0191036,38.6899339 58.0191036,38.7296106 C57.9728141,38.8618663 57.9529758,39.0007348 57.9529758,39.1396032 C57.9529758,46.0830272 50.3747245,51.7766348 50.2953711,51.8361499 C49.958119,52.0874357 49.7597355,52.47759 49.7597355,52.9008082 L49.7597355,74.7825129 C49.7597355,76.2174871 50.5863336,77.4408523 52.0808229,78.2277737 C53.2182219,78.8295371 54.4614254,79.0411462 55.182219,79.0411462 L71.7472447,79.0411462 C72.9507715,79.0411462 73.9955915,78.1351947 74.9279941,76.2703894 C75.483468,75.1660544 75.8207201,74.0749449 75.8405584,74.0286554 C75.8405584,74.0220426 75.8471712,74.0154298 75.8471712,74.008817 C79.9537105,60.0558413 80,55.7310801 80,55.5591477 C79.9867744,53.9919177 79.3453343,53.0793534 78.8096988,52.5833946 L78.8096988,52.5833946 Z M73.3012491,73.2483468 C73.2747979,73.334313 73.0367377,74.0617193 72.6730345,74.8420279 C72.137399,75.9794269 71.7604702,76.3166789 71.6480529,76.3960323 L55.1756062,76.3960323 C54.4614254,76.3960323 52.3982366,75.8405584 52.3982366,74.7825129 L52.3982366,53.5422483 C53.1719324,52.907421 54.6796473,51.5848641 56.193975,49.7597355 C57.4570169,48.2321822 58.4621602,46.671565 59.1895665,45.104335 C60.0889052,43.1734019 60.5584129,41.235856 60.5914769,39.3512123 C60.6377663,39.1528288 60.6509919,38.9544453 60.6642175,38.7626745 C60.6840558,38.4783248 60.7038942,38.1212344 60.8361499,37.9426892 C60.95518,37.764144 61.3188832,37.6583395 61.8280676,37.6451139 C62.0330639,37.6980162 62.9324026,37.9691403 63.6796473,39.0734754 C64.3739897,40.0918442 64.7773696,41.5202057 64.8765614,43.3321087 C65.0154298,45.7986774 64.5855988,48.9066863 63.5936811,52.5569434 C63.4878766,52.9537105 63.56723,53.3769287 63.8185158,53.707568 C64.0698016,54.0382072 64.4599559,54.2233652 64.8699486,54.2233652 L75.8670096,54.2233652 C75.913299,54.2233652 75.9595885,54.2233652 76.005878,54.2167524 C76.0124908,54.2167524 76.6671565,54.196914 77.0242469,54.5275533 C77.235856,54.719324 77.3416605,55.0631888 77.3416605,55.5393093 C77.3350478,55.6649522 77.2094048,59.9500367 73.3012491,73.2483468 L73.3012491,73.2483468 Z M44.3108009,51.5848641 L37.7046289,51.5848641 C35.9720794,51.5848641 35.0198384,52.9470977 35,54.2233652 L35,54.3225569 L36.3622337,76.3497428 C36.3886848,78.0889052 37.7773696,79.0279206 39.0933137,79.0279206 L44.8067597,79.0279206 C45.7656135,79.0279206 46.3475386,78.6443791 46.6649522,78.3203527 C47.1410727,77.8376194 47.3130051,77.2027921 47.3063924,76.7729611 L47.3063924,54.5804555 C47.3063924,53.4959589 46.8501102,52.8214548 46.4731815,52.4445261 C45.6465834,51.6377663 44.5753123,51.5848641 44.3108009,51.5848641 Z M39.0997584,76.4148797 L39.1311766,76.4148797 L39.0997584,76.4148797 Z M44.6612785,76.3960323 L39.1197649,76.3960323 C39.086701,76.3960323 39.0470242,76.3828068 39.0139603,76.3695812 L39.0139603,76.3100661 L39.0139603,76.2307127 L37.6583395,54.2696547 C37.6583395,54.2564291 37.6649522,54.2432035 37.6649522,54.229978 L44.3174137,54.229978 C44.6678913,54.2498163 44.6678913,54.3952976 44.6678913,54.5804555 L44.6678913,76.3960323 L44.6612785,76.3960323 Z" id="形状" fill="#282D52" fill-rule="nonzero"></path>
                </g>
            </g>
        </g>
    </g>
</svg>