<?xml version="1.0" encoding="UTF-8"?>
<svg width="44px" height="44px" viewBox="0 0 44 44" version="1.1" xmlns="http://www.w3.org/2000/svg" xmlns:xlink="http://www.w3.org/1999/xlink">
    <!-- Generator: Sketch 56.2 (81672) - https://sketch.com -->
    <title>icon_footer_facebook</title>
    <desc>Created with Sketch.</desc>
    <g id="博客" stroke="none" stroke-width="1" fill="none" fill-rule="evenodd">
        <g id="05.1.1_列表" transform="translate(-1546.000000, -1658.000000)">
            <g id="Footer" transform="translate(0.000000, 1248.000000)">
                <g id="icon_footer_facebook">
                    <g transform="translate(1546.000000, 410.000000)">
                        <g>
                            <rect id="矩形" x="0" y="0" width="44" height="44"></rect>
                            <path d="M22.9557073,36 L9.54538505,36 C8.69164238,36 8,35.3079284 8,34.4545183 L8,9.54537305 C8,8.69174566 8.69175102,8 9.54538505,8 L34.4547236,8 C35.3081403,8 36,8.69174566 36,9.54537305 L36,34.4545183 C36,35.308037 35.3080317,36 34.4547236,36 L27.3195948,36 L27.3195948,25.1568569 L30.9591374,25.1568569 L31.5041072,20.9310916 L27.3195948,20.9310916 L27.3195948,18.2332075 C27.3195948,17.0097509 27.6593318,16.1760057 29.4137523,16.1760057 L31.6514316,16.1750278 L31.6514316,12.3954695 C31.2644334,12.3439715 29.9361237,12.228916 28.3907387,12.228916 C25.1644866,12.228916 22.9557073,14.1982237 22.9557073,17.8147052 L22.9557073,20.9310916 L19.306821,20.9310916 L19.306821,25.1568569 L22.9557073,25.1568569 L22.9557073,36 L22.9557073,36 Z" id="路径" fill="#FFFFFF" fill-rule="nonzero"></path>
                        </g>
                    </g>
                </g>
            </g>
        </g>
    </g>
</svg>