<?xml version="1.0" encoding="UTF-8"?>
<svg width="44px" height="44px" viewBox="0 0 44 44" version="1.1" xmlns="http://www.w3.org/2000/svg" xmlns:xlink="http://www.w3.org/1999/xlink">
    <!-- Generator: Sketch 56.2 (81672) - https://sketch.com -->
    <title>icon_footer_Twitter</title>
    <desc>Created with Sketch.</desc>
    <g id="博客" stroke="none" stroke-width="1" fill="none" fill-rule="evenodd">
        <g id="05.1.1_列表" transform="translate(-1398.000000, -1658.000000)">
            <g id="Footer" transform="translate(0.000000, 1248.000000)">
                <g id="icon_footer_Twitter">
                    <g transform="translate(1398.000000, 410.000000)">
                        <g>
                            <rect id="矩形" x="0" y="0" width="44" height="44"></rect>
                            <path d="M32.6814056,14.5696689 C33.2723482,14.2184335 33.7971063,13.7662715 34.2318288,13.2337343 C34.6691156,12.6988869 35.0001356,12.0853819 35.207069,11.4262461 C34.0819041,12.095296 32.8488699,12.5633923 31.5631729,12.8095771 C31.0316833,12.2448294 30.3896182,11.7955479 29.6769586,11.489709 C28.9506602,11.1750073 28.1669618,11.014438 27.3754237,11.0180923 C26.352787,11.0180923 25.3992366,11.2752204 24.5147724,11.7885471 C23.6506705,12.2819575 22.9293511,12.9910981 22.4212994,13.8466736 C21.9111727,14.701088 21.6457748,15.6793087 21.6541211,16.6743884 C21.6541211,17.1146122 21.6966975,17.5443927 21.7818503,17.96373 C19.4772821,17.8483804 17.2228926,17.2486514 15.1656403,16.2036382 C13.1412535,15.1769849 11.4044582,13.793654 9.95525438,12.055252 C9.45020153,12.9118129 9.18519273,13.8885993 9.18807607,14.8829668 C9.18807607,15.8469605 9.41702457,16.7434746 9.87492158,17.5709025 C10.3241153,18.3885975 10.9660677,19.0843217 11.7450693,19.5976993 C10.8243533,19.5814246 9.92268314,19.3327261 9.12380982,18.874704 L9.12380982,18.9694967 C9.14241183,19.8383853 9.35542146,20.6920707 9.74719241,21.467847 C10.1356515,22.2461373 10.6993693,22.9236985 11.394015,23.4472474 C12.079906,23.9735287 12.8784076,24.3337344 13.7268797,24.4996072 C12.8911774,24.7139914 12.0191683,24.7463185 11.1698864,24.5943999 C11.5313841,25.7262892 12.2029663,26.6533298 13.1838299,27.3755217 C14.1638902,28.098517 15.2724829,28.4809011 16.5080015,28.5226742 C15.4994981,29.2806889 14.3776257,29.8747011 13.1838299,30.282766 C11.9691979,30.7021032 10.7015461,30.9109686 9.38007147,30.9109685 C8.91092789,30.9109685 8.45303087,30.890082 8.00557714,30.8483089 C9.29525378,31.6608541 10.6942973,32.2851759 12.1603899,32.7023901 C13.67386,33.1426139 15.2291032,33.3627258 16.827726,33.3627258 C19.3421429,33.3627258 21.6750076,32.880729 23.8279269,31.9167353 C25.7744871,31.0260769 27.5156616,29.7422136 28.9419134,28.1459133 C30.2885842,26.6309053 31.3500092,24.8847251 32.0748929,22.9917604 C32.777805,21.1063494 33.1288593,19.2209384 33.1288593,17.3347241 L33.1288593,16.6117288 C34.251761,15.8013388 35.2251701,14.8018343 36.0055771,13.6578915 C34.9612507,14.1190018 33.8534612,14.4226598 32.6814056,14.5696689 Z" id="路径" fill="#FFFFFF" fill-rule="nonzero"></path>
                        </g>
                    </g>
                </g>
            </g>
        </g>
    </g>
</svg>