<?xml version="1.0" encoding="UTF-8"?>
<svg width="58px" height="58px" viewBox="0 0 58 58" version="1.1" xmlns="http://www.w3.org/2000/svg" xmlns:xlink="http://www.w3.org/1999/xlink">
    <!-- Generator: Sketch 56.2 (81672) - https://sketch.com -->
    <title>icon_tijiaochenggong</title>
    <desc>Created with Sketch.</desc>
    <g id="服务" stroke="none" stroke-width="1" fill="none" fill-rule="evenodd">
        <g id="04.1.5.1-问题反馈成功" transform="translate(-926.000000, -625.000000)">
            <g id="Form" transform="translate(575.000000, 564.000000)">
                <g id="icon_tijiaochenggong" transform="translate(351.000000, 61.000000)">
                    <rect fill="#D8D8D8" opacity="0" x="0" y="0" width="58" height="58"></rect>
                    <g id="提交成功" transform="translate(1.000000, 1.000000)" fill="#838487" fill-rule="nonzero">
                        <path d="M23.9936065,30.7521383 L12.5452237,21.6369992 L7.47143027,25.7681981 L27.2685105,46.2139742 C30.6927113,37.3613348 41.4890008,20.043407 54.6781402,7.73862265 L53.4694926,4.9059224 C39.1007992,13.8472102 28.6848064,25.0891441 23.9936065,30.7521383 Z M55.4072881,22.2414048 L52.5676416,22.2414048 C52.9992898,24.0916998 53.2291412,26.017901 53.2291412,27.9999927 C53.2291412,41.9346817 41.9335004,53.2303187 27.9988615,53.2303187 C14.0665742,53.2303187 2.7709335,41.934627 2.7709335,28.0000376 C2.7709335,14.0665616 14.0665742,2.77092458 28.0000145,2.77092458 C31.3927108,2.77092458 34.6290055,3.44177546 37.5818003,4.65512579 L37.5818003,1.68237099 C34.511221,0.564107285 31.2678752,-0.00533378983 28.0000145,3.76481982e-05 C20.5724203,-0.00752678517 13.4476429,2.94338052 8.20057819,8.20051279 C2.94339063,13.4475712 -0.0075590429,20.5723708 1.4542255e-05,27.9999927 C1.4542255e-05,31.7787858 0.740880195,35.446782 2.20152761,38.9001301 C3.60659246,42.2270244 5.64436067,45.2493993 8.20167194,47.7994179 C10.7524045,50.355878 13.7746002,52.3935426 17.1009628,53.799615 C20.5491064,55.2583289 24.2560153,56.006678 28.0000145,55.9999551 C31.7777105,55.9999551 35.4468018,55.2590588 38.9002056,53.7984119 C42.2269045,52.3936103 45.2489519,50.3558013 47.798348,47.7982695 C53.0592251,42.5540877 56.0111826,35.4281907 55.9999682,27.9999927 C55.9999682,26.0458463 55.8004363,24.1219966 55.4072334,22.2413501 L55.4072881,22.2414048 Z" id="形状"></path>
                    </g>
                </g>
            </g>
        </g>
    </g>
</svg>