<?xml version="1.0" encoding="UTF-8"?>
<svg width="44px" height="44px" viewBox="0 0 44 44" version="1.1" xmlns="http://www.w3.org/2000/svg" xmlns:xlink="http://www.w3.org/1999/xlink">
    <!-- Generator: Sketch 56.2 (81672) - https://sketch.com -->
    <title>icon_footer_ins</title>
    <desc>Created with Sketch.</desc>
    <g id="博客" stroke="none" stroke-width="1" fill="none" fill-rule="evenodd">
        <g id="05.1.1_列表" transform="translate(-1472.000000, -1658.000000)">
            <g id="Footer" transform="translate(0.000000, 1248.000000)">
                <g id="icon_footer_ins">
                    <g transform="translate(1472.000000, 410.000000)">
                        <g>
                            <rect id="矩形" x="0" y="0" width="44" height="44"></rect>
                            <path d="M22,17 C20.2136721,17 18.563037,17.9529946 17.669873,19.5 C16.776709,21.0470053 16.776709,22.9529946 17.669873,24.5 C18.563037,26.0470053 20.2136721,27 22,27 C24.7614238,27 27,24.7614237 27,22 C27,19.2385762 24.7614238,17 22,17" id="路径" fill="#FFFFFF" fill-rule="nonzero"></path>
                            <path d="M31.2235294,14.2588235 C30.4048485,14.2588235 29.7411765,13.5951515 29.7411765,12.7764706 C29.7411765,11.9577897 30.4048485,11.2941176 31.2235294,11.2941176 C32.0422103,11.2941176 32.7058824,11.9577897 32.7058824,12.7764706 C32.7058824,13.5951515 32.0422103,14.2588235 31.2235294,14.2588235 L31.2235294,14.2588235 Z M22,30.2352941 C17.4517726,30.2352941 13.7647059,26.5482274 13.7647059,22 C13.7647059,17.4517726 17.4517726,13.7647059 22,13.7647059 C26.5482274,13.7647059 30.2352941,17.4517726 30.2352941,22 C30.2352941,26.5482274 26.5482274,30.2352941 22,30.2352941 L22,30.2352941 Z M14.5882353,8 C10.9647059,8 8,10.9647059 8,14.5882353 L8,29.4117647 C8,33.0352941 10.9647059,36 14.5882353,36 L29.4117647,36 C33.0352941,36 36,33.0352941 36,29.4117647 L36,14.5882353 C36,10.9647059 33.0352941,8 29.4117647,8 L14.5882353,8 Z" id="形状" fill="#FFFFFF" fill-rule="nonzero"></path>
                        </g>
                    </g>
                </g>
            </g>
        </g>
    </g>
</svg>