<?xml version="1.0" encoding="UTF-8"?>
<svg width="24px" height="24px" viewBox="0 0 24 24" version="1.1" xmlns="http://www.w3.org/2000/svg" xmlns:xlink="http://www.w3.org/1999/xlink">
    <!-- Generator: Sketch 56.2 (81672) - https://sketch.com -->
    <title>icon_前一页_nor</title>
    <desc>Created with Sketch.</desc>
    <g id="博客" stroke="none" stroke-width="1" fill="none" fill-rule="evenodd">
        <g id="05.1.1_列表" transform="translate(-908.000000, -1140.000000)">
            <g id="页码" transform="translate(904.000000, 1136.000000)">
                <g id="icon_前一页_nor" transform="translate(4.000000, 4.000000)">
                    <g>
                        <rect x="0" y="0" width="24" height="24"></rect>
                        <path d="M11.6249762,13.8560914 L15.8526247,9.16081203 C16.0258516,8.96842412 16.3222409,8.95289101 16.5146288,9.12611787 C16.7070168,9.29934473 16.7225499,9.59573406 16.549323,9.78812198 L11.9910776,14.8505663 C11.8942865,14.9580637 11.7590435,15.0103461 11.6249762,15.0053367 C11.4909089,15.0103461 11.3556658,14.9580637 11.2588747,14.8505663 L6.70062935,9.78812198 C6.5274025,9.59573406 6.5429356,9.29934473 6.73532352,9.12611787 C6.92771143,8.95289101 7.22410077,8.96842412 7.39732763,9.16081203 L11.6249762,13.8560914 Z" id="down" fill-opacity="0.65" fill="#000000" transform="translate(11.624976, 12.005689) rotate(90.000000) translate(-11.624976, -12.005689) "></path>
                    </g>
                </g>
            </g>
        </g>
    </g>
</svg>