<?xml version="1.0" encoding="UTF-8"?>
<svg width="24px" height="24px" viewBox="0 0 24 24" version="1.1" xmlns="http://www.w3.org/2000/svg" xmlns:xlink="http://www.w3.org/1999/xlink">
    <!-- Generator: Sketch 56.2 (81672) - https://sketch.com -->
    <title>icon_点赞_nor</title>
    <desc>Created with Sketch.</desc>
    <g id="博客" stroke="none" stroke-width="1" fill="none" fill-rule="evenodd">
        <g id="05.1.1.1_详情" transform="translate(-1412.000000, -540.000000)">
            <g id="博客1备份-7" transform="translate(1250.000000, 193.000000)">
                <g id="博客信息备份-2" transform="translate(0.000000, 280.000000)">
                    <g id="博客信息">
                        <g id="Group-Copy-2备份" transform="translate(8.000000, 67.000000)">
                            <g id="Group">
                                <g id="赞评论看">
                                    <g id="icon_点赞_nor" transform="translate(154.000000, 0.000000)">
                                        <g>
                                            <rect stroke="#979797" fill="#D8D8D8" opacity="0" x="0.5" y="0.5" width="23" height="23"></rect>
                                            <g id="赞" transform="translate(5.000000, 5.000000)" fill="#717379" fill-rule="nonzero">
                                                <path d="M13.6457468,5.58948949 C13.3151104,5.26366366 12.8801662,5.26366366 12.767986,5.26996997 L10.0028428,5.26996997 C10.4515635,3.24144144 10.3807129,1.74684685 9.79225891,0.821921922 C9.33369779,0.100900901 8.73146731,0.0105105105 8.66455281,0.0021021021 C8.6507763,0 8.63503171,0 8.62125519,0 C8.17253444,0 7.84386617,0.153453453 7.6490269,0.456156156 C7.48764487,0.706306306 7.46993221,0.977477477 7.46009184,1.14144144 C7.46009184,1.15615616 7.45812377,1.17297297 7.45812377,1.18558559 C7.44434726,1.22762763 7.43844304,1.27177177 7.43844304,1.31591592 C7.43844304,3.52312312 5.18303083,5.33303303 5.15941395,5.35195195 C5.0590422,5.43183183 5,5.55585586 5,5.69039039 L5,12.6462462 C5,13.1024024 5.24600918,13.4912913 5.69079379,13.7414414 C6.02930243,13.9327327 6.39930024,14 6.61382025,14 L11.5438443,14 C11.9020337,14 12.2129893,13.712012 12.4904876,13.1192192 C12.6558058,12.7681682 12.7561776,12.4213213 12.7620818,12.4066066 C12.7620818,12.4045045 12.7640499,12.4024024 12.7640499,12.4003003 C13.9862235,7.96486486 14,6.59009009 14,6.53543544 C13.9960639,6.03723724 13.8051607,5.74714715 13.6457468,5.58948949 L13.6457468,5.58948949 Z M11.8661188,12.025256 C11.8586957,12.0518771 11.7918876,12.2771331 11.6898197,12.5187713 C11.5395016,12.8709898 11.4337222,12.9754266 11.4021739,13 L6.77942736,13 C6.57900318,13 6,12.8279863 6,12.5003413 L6,5.92286689 C6.21712619,5.72627986 6.6402439,5.31672355 7.06521739,4.75153584 C7.41967126,4.27849829 7.70174973,3.79522184 7.90588547,3.30989761 C8.15827147,2.71194539 8.29003181,2.11194539 8.29931071,1.52832765 C8.31230117,1.4668942 8.31601273,1.40546075 8.31972428,1.34607509 C8.32529162,1.25802048 8.33085896,1.14744027 8.36797455,1.09215017 C8.40137858,1.03686007 8.50344645,1.00409556 8.64634146,1 C8.70387063,1.01638225 8.95625663,1.1003413 9.1659597,1.44232082 C9.36081654,1.75767918 9.47401909,2.2 9.50185578,2.76109215 C9.54082715,3.52491468 9.42020148,4.48737201 9.14183457,5.61774744 C9.1121421,5.74061433 9.13441145,5.87167235 9.20493107,5.97406143 C9.27545069,6.07645051 9.38494168,6.1337884 9.5,6.1337884 L12.5861612,6.1337884 C12.5991516,6.1337884 12.6121421,6.1337884 12.6251326,6.13174061 C12.6269883,6.13174061 12.8107105,6.12559727 12.9109226,6.22798635 C12.9703075,6.28737201 13,6.39385666 13,6.54129693 C12.9981442,6.58020478 12.9628844,7.90716724 11.8661188,12.025256 L11.8661188,12.025256 Z M3.02628495,5 L0.879084195,5 C0.315954466,5 0.00644805033,5.44674699 0,5.8653012 L0,5.89783133 L0.442766122,13.1216867 C0.451363523,13.6920482 0.902727046,14 1.33044772,14 L3.18748621,14 C3.49914198,14 3.68828479,13.8742169 3.79145359,13.7679518 C3.9462068,13.6096386 4.0020899,13.4014458 3.99994055,13.2604819 L3.99994055,5.98240964 C3.99994055,5.62674699 3.8516354,5.40554217 3.72912244,5.28192771 C3.46045368,5.0173494 3.11225896,5 3.02628495,5 Z M0.98464,13 L1.01536,13 L0.98464,13 Z M2.99811321,13 L1.41698113,13 C1.40754717,13 1.39622642,12.9958234 1.38679245,12.9916468 L1.38679245,12.972852 L1.38679245,12.9477924 L1,6.01252983 C1,6.00835322 1.00188679,6.00417661 1.00188679,6 L2.9,6 C3,6.00626492 3,6.05220764 3,6.11068019 L3,13 L2.99811321,13 Z" id="形状"></path>
                                            </g>
                                        </g>
                                    </g>
                                </g>
                            </g>
                        </g>
                    </g>
                </g>
            </g>
        </g>
    </g>
</svg>