<?xml version="1.0" encoding="UTF-8"?>
<svg width="24px" height="24px" viewBox="0 0 24 24" version="1.1" xmlns="http://www.w3.org/2000/svg" xmlns:xlink="http://www.w3.org/1999/xlink">
    <!-- Generator: Sketch 56.2 (81672) - https://sketch.com -->
    <title>icon_阅读量_nor</title>
    <desc>Created with Sketch.</desc>
    <g id="博客" stroke="none" stroke-width="1" fill="none" fill-rule="evenodd">
        <g id="05.1.1_列表" transform="translate(-258.000000, -967.000000)">
            <g id="博客1备份-2" transform="translate(250.000000, 620.000000)">
                <g id="博客信息备份" transform="translate(0.000000, 280.000000)">
                    <g id="博客信息">
                        <g id="Group-Copy-2备份" transform="translate(8.000000, 67.000000)">
                            <g id="Group">
                                <g id="赞评论看">
                                    <g id="ico_阅读量_nor">
                                        <g>
                                            <rect id="icon_阅读量_nor" fill="#717379" opacity="0" x="0" y="1.36424205e-12" width="24" height="24"></rect>
                                            <path d="M3.56344182,12.462854 L3.59709743,12.5213686 C3.64630142,12.6054741 3.6973098,12.688511 3.74969746,12.7698177 C4.3594307,13.7131447 5.0712418,14.5864209 5.87163072,15.3732355 C7.78738535,17.2499975 9.84089005,18.2327991 11.9938126,18.2327991 C14.1467353,18.2327991 16.20024,17.2499975 18.1153064,15.3739111 C18.9163835,14.5861052 19.6281971,13.7124125 20.2365524,12.7706843 C20.3034331,12.6660484 20.3576633,12.5773938 20.3885108,12.5235751 L20.4240434,12.4617018 L20.3946364,12.3987427 C20.3671618,12.3404429 20.320929,12.2496669 20.2638907,12.1438786 C19.7319503,11.1666274 19.0767507,10.2617101 18.3151383,9.452144 C16.4871769,7.51792789 14.3682342,6.5 11.9938126,6.5 C9.61939109,6.5 7.50044845,7.51792788 5.67320122,9.45138665 C5.08841516,10.0727513 4.56622546,10.750181 4.11366068,11.4747161 C3.88171206,11.8444182 3.69764226,12.176064 3.59317222,12.3996265 L3.56344182,12.462854 Z" id="Path" stroke="#717379" fill-rule="nonzero"></path>
                                            <path d="M11.9938126,9.18319978 C13.7388428,9.18319978 15.1770124,10.6213694 15.1770124,12.3663996 C15.1770124,14.1260724 13.771948,15.5495993 11.9938126,15.5495993 C10.2341398,15.5495993 8.81061288,14.144535 8.81061288,12.3663996 C8.81061288,10.6067267 10.2156773,9.18319978 11.9938126,9.18319978 Z M11.9938127,10.3663996 C10.8718127,10.3663996 9.99381266,11.2557329 9.99381266,12.3663996 C9.99381266,13.4883996 10.883146,14.3663996 11.9938127,14.3663996 C13.1158126,14.3663996 13.9938127,13.4770662 13.9938127,12.3663996 C13.9938127,11.2757329 13.0844793,10.3663996 11.9938127,10.3663996 Z" id="Path-2" fill="#717379" fill-rule="nonzero"></path>
                                        </g>
                                    </g>
                                </g>
                            </g>
                        </g>
                    </g>
                </g>
            </g>
        </g>
    </g>
</svg>