<?xml version="1.0" encoding="UTF-8"?>
<svg width="24px" height="24px" viewBox="0 0 24 24" version="1.1" xmlns="http://www.w3.org/2000/svg" xmlns:xlink="http://www.w3.org/1999/xlink">
    <!-- Generator: Sketch 56.2 (81672) - https://sketch.com -->
    <title>icon_menu_phone</title>
    <desc>Created with Sketch.</desc>
    <g id="首页、产品页、配件页" stroke="none" stroke-width="1" fill="none" fill-rule="evenodd">
        <g id="00-首页-Menu" transform="translate(-1434.000000, -850.000000)">
            <g id="Menu" transform="translate(0.000000, 80.000000)">
                <g id="icon_menu_phone" transform="translate(1434.000000, 770.000000)">
                    <g>
                        <rect id="矩形" x="0" y="0" width="24" height="24"></rect>
                        <path d="M17.7998312,14.3842194 C17.3905485,13.9580591 16.8968776,13.730211 16.3736709,13.730211 C15.8546835,13.730211 15.3567932,13.9538397 14.9306329,14.38 L13.5972996,15.7091139 C13.4875949,15.6500422 13.3778903,15.5951899 13.2724051,15.5403376 C13.1205063,15.4643882 12.9770464,15.3926582 12.8546835,15.3167089 C11.6057384,14.5234599 10.4707173,13.4897046 9.3821097,12.1521519 C8.85468354,11.4854852 8.50025316,10.9243038 8.2428692,10.3546835 C8.58886076,10.0382278 8.90953586,9.70911392 9.22177215,9.39265823 C9.33991561,9.27451477 9.45805907,9.1521519 9.57620253,9.03400844 C10.4622785,8.14793249 10.4622785,7.00025316 9.57620253,6.11417722 L8.4243038,4.96227848 C8.29350211,4.83147679 8.15848101,4.6964557 8.03189873,4.5614346 C7.77873418,4.29983122 7.51291139,4.02978903 7.23864979,3.77662447 C6.82936709,3.37156118 6.33991561,3.15637131 5.82514768,3.15637131 C5.31037975,3.15637131 4.81248945,3.37156118 4.39054852,3.77662447 C4.38632911,3.78084388 4.38632911,3.78084388 4.3821097,3.78506329 L2.94751055,5.23232068 C2.40742616,5.77240506 2.09940928,6.43063291 2.03189873,7.19434599 C1.93063291,8.4264135 2.29350211,9.57409283 2.57198312,10.3251477 C3.25552743,12.1690295 4.27662447,13.8778903 5.79983122,15.7091139 C7.64793249,17.915865 9.87156118,19.658481 12.4116456,20.8863291 C13.3821097,21.3462447 14.6774684,21.8905485 16.1247257,21.9833755 C16.2133333,21.9875949 16.3061603,21.9918143 16.3905485,21.9918143 C17.3652321,21.9918143 18.1837975,21.6416034 18.8251477,20.9454008 C18.8293671,20.936962 18.8378059,20.9327426 18.8420253,20.9243038 C19.0614346,20.658481 19.3145992,20.4179747 19.5804219,20.1605907 C19.7618565,19.9875949 19.9475105,19.8061603 20.1289451,19.6162869 C20.5466667,19.1816878 20.7660759,18.6753586 20.7660759,18.1563713 C20.7660759,17.6331646 20.5424473,17.1310549 20.1162869,16.7091139 L17.7998312,14.3842194 L17.7998312,14.3842194 Z M19.3103797,18.8272574 C19.3061603,18.8272574 19.3061603,18.8314768 19.3103797,18.8272574 C19.1458228,19.0044726 18.9770464,19.1648101 18.7956118,19.3420253 C18.5213502,19.6036287 18.2428692,19.8778903 17.9812658,20.1859072 C17.5551055,20.6416034 17.0529958,20.8567932 16.3947679,20.8567932 C16.3314768,20.8567932 16.2639662,20.8567932 16.2006751,20.8525738 C14.9475105,20.7724051 13.7829536,20.2829536 12.9095359,19.8652321 C10.5213502,18.7091139 8.4243038,17.0677637 6.68168776,14.9875949 C5.2428692,13.2534177 4.28084388,11.6500422 3.64371308,9.92852321 C3.25130802,8.8778903 3.1078481,8.05932489 3.17113924,7.287173 C3.21333333,6.79350211 3.40320675,6.38421941 3.75341772,6.03400844 L5.19223629,4.59518987 C5.39898734,4.40109705 5.61839662,4.29561181 5.8335865,4.29561181 C6.09940928,4.29561181 6.31459916,4.45594937 6.44962025,4.59097046 C6.45383966,4.59518987 6.45805907,4.59940928 6.46227848,4.60362869 C6.71966245,4.84413502 6.96438819,5.09308017 7.22177215,5.35890295 C7.35257384,5.49392405 7.48759494,5.62894515 7.62261603,5.76818565 L8.77451477,6.92008439 C9.22177215,7.36734177 9.22177215,7.78084388 8.77451477,8.22810127 C8.6521519,8.35046414 8.53400844,8.472827 8.41164557,8.59097046 C8.05721519,8.95383966 7.71966245,9.29139241 7.35257384,9.62050633 C7.34413502,9.62894515 7.3356962,9.63316456 7.33147679,9.64160338 C6.96860759,10.0044726 7.03611814,10.358903 7.11206751,10.5994093 C7.11628692,10.6120675 7.12050633,10.6247257 7.12472574,10.637384 C7.4243038,11.3631224 7.84624473,12.0466667 8.48759494,12.8610127 L8.49181435,12.8652321 C9.65637131,14.2998312 10.8842194,15.4179747 12.2386498,16.2745148 C12.4116456,16.3842194 12.5888608,16.472827 12.7576371,16.5572152 C12.9095359,16.6331646 13.0529958,16.7048945 13.1753586,16.7808439 C13.1922363,16.7892827 13.2091139,16.8019409 13.2259916,16.8103797 C13.3694515,16.8821097 13.5044726,16.915865 13.6437131,16.915865 C13.9939241,16.915865 14.2133333,16.6964557 14.2850633,16.6247257 L15.7281013,15.1816878 C15.8715612,15.0382278 16.0994093,14.8652321 16.3652321,14.8652321 C16.6268354,14.8652321 16.8420253,15.029789 16.972827,15.1732489 C16.9770464,15.1774684 16.9770464,15.1774684 16.9812658,15.1816878 L19.3061603,17.5065823 C19.7407595,17.936962 19.7407595,18.38 19.3103797,18.8272574 L19.3103797,18.8272574 Z" id="Shape" fill="#FFFFFF"></path>
                        <path d="M12.8040506,6.75552743 C13.9095359,6.94118143 14.9137553,7.46438819 15.715443,8.26607595 C16.5171308,9.06776371 17.0361181,10.0719831 17.2259916,11.1774684 C17.2724051,11.4559494 17.5129114,11.6500422 17.787173,11.6500422 C17.8209283,11.6500422 17.8504641,11.6458228 17.8842194,11.6416034 C18.1964557,11.5909705 18.4032068,11.2956118 18.3525738,10.9833755 C18.1247257,9.64582278 17.4918143,8.4264135 16.5255696,7.46016878 C15.5593249,6.49392405 14.3399156,5.86101266 13.0023629,5.63316456 C12.6901266,5.58253165 12.3989873,5.7892827 12.344135,6.09729958 C12.2892827,6.40531646 12.4918143,6.70489451 12.8040506,6.75552743 L12.8040506,6.75552743 Z" id="Shape" fill="#FFFFFF"></path>
                        <path d="M21.9686076,10.8188186 C21.5930802,8.61628692 20.5551055,6.61206751 18.9601688,5.0171308 C17.3652321,3.42219409 15.3610127,2.38421941 13.158481,2.00869198 C12.8504641,1.95383966 12.5593249,2.16481013 12.5044726,2.472827 C12.4538397,2.78506329 12.6605907,3.07620253 12.972827,3.13105485 C14.9390717,3.46438819 16.7323207,4.39687764 18.158481,5.81881857 C19.5846414,7.2449789 20.5129114,9.03822785 20.8462447,11.0044726 C20.8926582,11.2829536 21.1331646,11.4770464 21.4074262,11.4770464 C21.4411814,11.4770464 21.4707173,11.472827 21.5044726,11.4686076 C21.8124895,11.4221941 22.0234599,11.1268354 21.9686076,10.8188186 L21.9686076,10.8188186 Z" id="Shape" fill="#FFFFFF"></path>
                    </g>
                </g>
            </g>
        </g>
    </g>
</svg>