<?xml version="1.0" encoding="UTF-8"?>
<svg width="44px" height="44px" viewBox="0 0 44 44" version="1.1" xmlns="http://www.w3.org/2000/svg" xmlns:xlink="http://www.w3.org/1999/xlink">
    <!-- Generator: Sketch 56.2 (81672) - https://sketch.com -->
    <title>icon_footer_sina</title>
    <desc>Created with Sketch.</desc>
    <g id="博客" stroke="none" stroke-width="1" fill="none" fill-rule="evenodd">
        <g id="05.1.1_列表" transform="translate(-1324.000000, -1658.000000)">
            <g id="Footer" transform="translate(0.000000, 1248.000000)">
                <g id="icon_footer_sina">
                    <g transform="translate(1324.000000, 410.000000)">
                        <g>
                            <rect id="Rectangle" fill="#000000" opacity="0" x="0" y="0" width="44" height="44"></rect>
                            <path d="M29.6998898,21.445618 C28.4538104,21.2034541 29.0592385,20.5335173 29.0592385,20.5335173 C29.0592385,20.5335173 30.2780117,18.5276291 28.8190172,17.066692 C27.0103934,15.2600474 22.6158534,17.2971637 22.6158534,17.2971637 C20.9385926,17.8186573 21.3834089,17.0608276 21.619745,15.7678329 C21.619745,14.2482884 21.0997175,11.6740644 16.6299664,13.1955516 C12.1631475,14.7229032 8.32913619,20.0803443 8.32913619,20.0803443 C5.6611549,23.6370052 6.01562244,26.387015 6.01562244,26.387015 C6.68068434,32.4573497 13.1318764,34.1253374 18.1494743,34.5198662 C23.4283322,34.9359102 30.5533461,32.6995502 32.713542,28.111631 C34.8737378,23.5139623 30.9479483,21.6956255 29.6998898,21.445618 L29.6998898,21.445618 Z M18.5411077,32.8069791 C13.3018347,33.0511222 9.06548751,30.4241552 9.06548751,26.9261019 C9.06548751,23.426106 13.3018347,20.6174885 18.5411077,20.3772305 C23.7857686,20.1350666 28.0299595,22.2971684 28.0299595,25.7893573 C28.0299595,29.2874473 23.7838627,32.5687004 18.5411077,32.8069791 L18.5411077,32.8069791 Z M17.4971676,22.6819477 C12.2246873,23.2991412 12.8350268,28.2366532 12.8350268,28.2366532 C12.8350268,28.2366532 12.7803411,29.8011339 14.2481322,30.596056 C17.3321208,32.2659863 20.5069713,31.2542639 22.1119531,29.1819977 C23.7174481,27.1116741 22.7740828,22.0706552 17.4971676,22.6819477 L17.4971676,22.6819477 Z M16.1670804,29.6116765 C15.1827008,29.7288549 14.3897213,29.1604827 14.3897213,28.3382543 C14.3897213,27.5179319 15.0938182,26.6585744 16.0781978,26.5550307 C17.2090779,26.4495811 17.9444396,27.1019246 17.9444396,27.9241896 C17.9444396,28.7425327 17.1455956,29.5003624 16.1670804,29.6116765 L16.1670804,29.6116765 Z M19.2725842,26.9671162 C18.939595,27.2151811 18.5284626,27.1800313 18.3536295,26.8811658 C18.1690469,26.5901806 18.2383936,26.1233361 18.5762942,25.8791929 C18.9669379,25.5882077 19.372206,25.6721789 19.5489816,25.9632007 C19.7256839,26.260087 19.5987559,26.7093016 19.2725842,26.9671162 L19.2725842,26.9671162 Z M32.2663067,19.3088798 C32.690121,19.3088798 33.0514792,18.9964162 33.1119927,18.5842574 C33.1197997,18.5549719 33.1237215,18.527629 33.1237215,18.4924792 C33.768258,12.7053227 28.3814948,13.7014311 28.3814948,13.7014311 C27.9029581,13.7014311 27.5201581,14.088153 27.5201581,14.5705749 C27.5201581,15.0451531 27.9029581,15.4319116 28.3814948,15.4319116 C32.250656,14.5783819 31.3971263,18.4475064 31.3971263,18.4475064 C31.3971629,18.9260798 31.7858274,19.3088798 32.2663067,19.3088798 L32.2663067,19.3088798 Z M31.6373842,9.20726942 C29.7760539,8.76974703 27.8619805,9.1447767 27.3248729,9.24828372 C27.281916,9.25216888 27.2428443,9.29124061 27.2057519,9.29904761 C27.1881953,9.30296945 27.1744872,9.32250529 27.1744872,9.32250529 C26.6471292,9.47292768 26.2604074,9.96117732 26.2604074,10.5412784 C26.2604074,11.230751 26.8189934,11.797144 27.5163096,11.797144 C27.5163096,11.797144 28.1940167,11.7073085 28.6530541,11.525658 C29.1100757,11.342065 32.9655655,11.3889804 34.8816182,14.6077041 C35.9284905,16.9554147 35.3425249,18.5257232 35.26834,18.7796159 C35.26834,18.7796159 35.0202751,19.3890025 35.0202751,19.9905454 C35.0202751,20.6839031 35.5788611,21.1194829 36.2722188,21.1194829 C36.8503407,21.1194829 37.3366844,21.0413395 37.4792631,20.0608451 L37.4870701,20.0608451 C39.5436856,13.2072805 34.9714171,9.98459832 31.6373842,9.20726942 L31.6373842,9.20726942 Z" id="Shape" fill="#FFFFFF" fill-rule="nonzero"></path>
                        </g>
                    </g>
                </g>
            </g>
        </g>
    </g>
</svg>