<?xml version="1.0" encoding="UTF-8"?>
<svg width="44px" height="44px" viewBox="0 0 44 44" version="1.1" xmlns="http://www.w3.org/2000/svg" xmlns:xlink="http://www.w3.org/1999/xlink">
    <!-- Generator: Sketch 56.2 (81672) - https://sketch.com -->
    <title>icon_footer_wechat</title>
    <desc>Created with Sketch.</desc>
    <g id="博客" stroke="none" stroke-width="1" fill="none" fill-rule="evenodd">
        <g id="05.1.1_列表" transform="translate(-1250.000000, -1658.000000)">
            <g id="Footer" transform="translate(0.000000, 1248.000000)">
                <g id="icon_footer_wechat">
                    <g transform="translate(1250.000000, 410.000000)">
                        <g>
                            <rect id="Rectangle" fill="#000000" opacity="0" x="0" y="0" width="44" height="44"></rect>
                            <path d="M27.6622022,16.7475955 C28.0267362,16.7498888 28.3908847,16.7717329 28.7530787,16.8130337 C27.7736629,12.331236 22.8945618,9 17.3258427,9 C11.0998652,9 6,13.1707865 6,18.4626517 C6,21.5188315 7.69707865,24.0266966 10.5321348,25.9733034 L9.39955056,29.3210787 L13.3585618,27.3701573 C14.7762697,27.6452135 15.9113708,27.9288989 17.3262022,27.9288989 C17.6814382,27.9288989 18.0330787,27.9116404 18.3832809,27.8839551 C18.1541442,27.1281794 18.0361748,26.3430893 18.0330787,25.5533483 C18.0330787,20.6925843 22.2822472,16.7475955 27.6622022,16.7475955 Z M21.573573,13.7306067 C22.426427,13.7306067 22.9909213,14.2825169 22.9909213,15.1195506 C22.9909213,15.9565843 22.426427,16.5120899 21.573573,16.5120899 C20.7207191,16.5120899 19.8728989,15.9533483 19.8728989,15.1195506 C19.8728989,14.2857528 20.7239551,13.7306067 21.573573,13.7306067 L21.573573,13.7306067 Z M13.6469213,16.5120899 C12.7973034,16.5120899 11.9408539,15.9533483 11.9408539,15.1195506 C11.9408539,14.2857528 12.7973034,13.7306067 13.6469213,13.7306067 C14.4965393,13.7306067 15.0606742,14.2825169 15.0606742,15.1195506 C15.0606742,15.9565843 14.4954607,16.5120899 13.6469213,16.5120899 L13.6469213,16.5120899 Z M38,25.4199551 C38,20.971236 33.4696629,17.3451685 28.3795056,17.3451685 C22.9905618,17.3451685 18.7471461,20.971236 18.7471461,25.4199551 C18.7471461,29.8747865 22.9898427,33.4933034 28.3795056,33.4933034 C29.5070562,33.4933034 30.6446742,33.2153708 31.7772584,32.936 L34.8844944,34.6075506 L34.0323596,31.8275056 C36.3061573,30.1505618 38,27.9288989 38,25.4199551 Z M25.2560899,24.0270562 C24.6923146,24.0270562 24.1235056,23.4762247 24.1235056,22.9124494 C24.1235056,22.3580225 24.6926742,21.8003596 25.2560899,21.8003596 C26.1125393,21.8003596 26.6734389,22.3580225 26.6734389,22.9124494 C26.6741573,23.4762247 26.1125393,24.0270562 25.2560899,24.0270562 Z M31.4856629,24.0270562 C30.9262022,24.0270562 30.3609888,23.4762247 30.3609888,22.9124494 C30.3609888,22.3580225 30.9265618,21.8003596 31.4856629,21.8003596 C32.3349213,21.8003596 32.9030112,22.3580225 32.9030112,22.9124494 C32.9030112,23.4762247 32.3352809,24.0270562 31.4856629,24.0270562 Z" id="Shape" fill="#FFFFFF" fill-rule="nonzero"></path>
                        </g>
                    </g>
                </g>
            </g>
        </g>
    </g>
</svg>