<?xml version="1.0" encoding="UTF-8"?>
<svg width="24px" height="24px" viewBox="0 0 24 24" version="1.1" xmlns="http://www.w3.org/2000/svg" xmlns:xlink="http://www.w3.org/1999/xlink">
    <!-- Generator: Sketch 56.2 (81672) - https://sketch.com -->
    <title>icon_user_nor</title>
    <desc>Created with Sketch.</desc>
    <g id="博客" stroke="none" stroke-width="1" fill="none" fill-rule="evenodd">
        <g id="05.1.1_列表" transform="translate(-1432.000000, -28.000000)">
            <g id="Nav">
                <g id="icon_user_nor" transform="translate(1432.000000, 28.000000)">
                    <g>
                        <rect id="Rectangle" fill="#000000" opacity="0" x="0" y="0" width="24" height="24"></rect>
                        <path d="M18.5259854,16.0651478 C18.0880811,15.4153219 17.5297761,14.8553748 16.881239,14.4155639 C15.4762,13.4461996 13.8126017,12.9207641 12.1056692,12.9072346 C10.3963222,12.9216418 8.73028123,13.4465542 7.32139197,14.4145964 C6.66948333,14.8535076 6.10758313,15.413109 5.66600303,16.0632128 C5.23449093,16.690008 4.99878288,17.4308047 4.98875448,18.1917083 C4.98875448,18.9144292 5.21901899,19.5162129 5.67277551,19.9806119 C6.7060633,21.0448597 8.67685657,21.127097 10.8324419,21.127097 L12.7403478,21.127097 C15.1291002,21.136772 17.3843379,21.1454794 18.5163104,19.9854494 C18.970067,19.5200829 19.2003315,18.9212017 19.2003315,18.1926758 C19.1901591,17.4325353 18.9555504,16.6923567 18.5259854,16.0651478 Z M15.9721751,19.7380979 C15.0408409,19.8536201 13.9377569,19.8495308 12.7702667,19.84033 L11.4167142,19.84033 C9.4006978,19.8485085 7.11581112,19.8577094 6.36031614,19.0827903 C6.24070463,18.9601119 6.08224491,18.7454245 6.08224491,18.2925365 C6.08224491,16.2959442 9.11649266,14.2615261 12.0934904,14.2615261 C13.5941923,14.2743823 15.0564926,14.737361 16.2911391,15.5905429 C17.428982,16.3859084 18.0822449,17.3724478 18.0822449,18.2966257 C18.0812226,18.7505361 17.9227629,18.9672681 17.8031514,19.0909689 C17.4964552,19.4078883 16.8830628,19.6256426 15.9721751,19.7380979 Z M16.7821897,7.66333998 C16.7821897,5.08784843 14.6943413,3 12.1188497,3 C9.54335816,3 7.45550972,5.08784841 7.45550972,7.66333997 C7.45817609,10.2377263 9.54446341,12.3240136 12.1188497,12.32668 C14.6943413,12.32668 16.7821897,10.2388315 16.7821897,7.66333998 Z M15.38995,6.34257748 C15.9316756,7.65041874 15.6322348,9.15580913 14.6312565,10.1567875 C13.6302781,11.1577658 12.1248877,11.4572066 10.8170465,10.915481 C9.50920522,10.3737554 8.65647007,9.09754707 8.65647007,7.6819499 C8.65871794,5.74991339 10.2243824,4.18424893 12.1564189,4.18200107 C13.5720161,4.18200107 14.8482244,5.03473623 15.38995,6.34257748 Z" id="Combined-Shape" fill="#FFFFFF" fill-rule="nonzero"></path>
                    </g>
                </g>
            </g>
        </g>
    </g>
</svg>