<?xml version="1.0" encoding="UTF-8"?>
<svg width="24px" height="24px" viewBox="0 0 24 24" version="1.1" xmlns="http://www.w3.org/2000/svg" xmlns:xlink="http://www.w3.org/1999/xlink">
    <!-- Generator: Sketch 56.2 (81672) - https://sketch.com -->
    <title>icon_评论_nor</title>
    <desc>Created with Sketch.</desc>
    <g id="博客" stroke="none" stroke-width="1" fill="none" fill-rule="evenodd">
        <g id="05.1.1_列表" transform="translate(-836.000000, -967.000000)">
            <g id="博客1备份-7" transform="translate(750.000000, 620.000000)">
                <g id="博客信息备份-2" transform="translate(0.000000, 280.000000)">
                    <g id="博客信息">
                        <g id="Group-Copy-2备份" transform="translate(8.000000, 67.000000)">
                            <g id="Group">
                                <g id="赞评论看">
                                    <g id="icon_评论_nor" transform="translate(78.000000, 0.000000)">
                                        <g>
                                            <rect stroke="#979797" fill="#D8D8D8" opacity="0" x="0.5" y="0.5" width="23" height="23"></rect>
                                            <g id="评论" transform="translate(4.000000, 4.000000)" fill="#717379" fill-rule="nonzero">
                                                <path d="M7.99004773,13.9716417 C7.47984545,13.9716417 6.98278027,13.9254004 6.49910655,13.8455818 L3.0048415,15.9656534 L3.0048415,12.43621 C1.18285664,11.1568774 0.0137104759,9.19547999 0.0137104759,6.99264624 C0.0137104759,3.13825952 3.58490835,0.0136325462 7.99006591,0.0136325462 C12.3949691,0.0136325462 15.9664213,3.13827768 15.9664213,6.99264624 C15.9664213,10.847251 12.3949509,13.9716417 7.99004773,13.9716417 Z M7.99004773,1.01061115 C4.13552124,1.01061115 1.01074808,3.68908606 1.01074808,6.99262807 C1.01074808,9.01972642 2.19010593,10.8082956 3.98946882,11.8900167 L3.95807063,14.2024126 L6.30486664,12.7916236 C6.84550407,12.9069999 7.40780043,12.9746632 7.99006589,12.9746632 C11.8448468,12.9746632 14.9693474,10.2966607 14.9693474,6.99264624 C14.9693474,3.68908604 11.8448468,1.01061115 7.99004773,1.01061115 Z M11.9782345,7.989643 C11.4276035,7.989643 10.9811787,7.54347278 10.9811787,6.99264624 C10.9811787,6.44203773 11.4276035,5.9956313 11.9782345,5.9956313 C12.5288656,5.9956313 12.9752903,6.44203773 12.9752903,6.99264624 C12.9752903,7.54347278 12.5288474,7.989643 11.9782345,7.989643 Z M7.99004773,7.989643 C7.43943484,7.989643 6.99301012,7.54347278 6.99301012,6.99264624 C6.99301012,6.44203773 7.43943484,5.9956313 7.99004773,5.9956313 C8.5406788,5.9956313 8.98710352,6.44203773 8.98710352,6.99264624 C8.98710352,7.54347278 8.5406788,7.989643 7.99004773,7.989643 Z M4.0018791,7.989643 C3.45126621,7.989643 3.0048415,7.54347278 3.0048415,6.99264624 C3.0048415,6.44203773 3.45126621,5.9956313 4.0018791,5.9956313 C4.55249199,5.9956313 4.99891671,6.44203773 4.99891671,6.99264624 C4.99891671,7.54347278 4.55249201,7.989643 4.0018791,7.989643 Z" id="形状"></path>
                                            </g>
                                        </g>
                                    </g>
                                </g>
                            </g>
                        </g>
                    </g>
                </g>
            </g>
        </g>
    </g>
</svg>