<?xml version="1.0" encoding="UTF-8"?>
<svg width="67px" height="65px" viewBox="0 0 67 65" version="1.1" xmlns="http://www.w3.org/2000/svg" xmlns:xlink="http://www.w3.org/1999/xlink">
    <!-- Generator: Sketch 56.2 (81672) - https://sketch.com -->
    <title>资源 1</title>
    <desc>Created with Sketch.</desc>
    <g id="首页、产品页、配件页" stroke="none" stroke-width="1" fill="none" fill-rule="evenodd">
        <g id="03.1.4-封套_帆布系列_A5" transform="translate(-825.000000, -1072.000000)" fill-rule="nonzero">
            <g id="编组-4" transform="translate(708.000000, 1060.000000)">
                <g id="编组-3" transform="translate(106.000000, 0.000000)">
                    <g id="img_footer_logo">
                        <rect id="Rectangle" x="0" y="0" width="90" height="90"></rect>
                        <g id="资源-1" transform="translate(11.000000, 12.000000)" fill="#000000">
                            <path d="M62.3304878,57.2640244 C62.9591198,57.6103447 63.4087934,58.2099095 63.5652439,58.9103659 C63.927439,60.0957317 64.3390244,60.9353659 63.2853659,62.0054878 C62.5511155,63.0199195 61.33932,63.5758463 60.0914634,63.4707317 C58.7414634,63.322561 58.8896341,63.1908537 58.5768293,62.845122 C58.2640244,62.4993902 57.2432927,62.6310976 57.1939024,60.9682927 C57.1445122,59.3054878 56.9304878,58.004878 58.9390244,57.0993902 C60.0128208,56.5222053 61.3176459,56.5855463 62.3304878,57.2640244 Z" id="路径"></path>
                            <path d="M24.3987805,37.079878 C23.1140486,37.079878 22.070023,38.1165195 22.0609756,39.4012195 L22.0609756,45.1963415 C21.9870136,46.0753718 22.4141475,46.9211872 23.1654612,47.3834561 C23.9167748,47.845725 24.8643227,47.845725 25.6156364,47.3834561 C26.3669501,46.9211872 26.794084,46.0753718 26.720122,45.1963415 L26.720122,39.4012195 C26.720122,38.119178 25.680822,37.079878 24.3987805,37.079878 L24.3987805,37.079878 Z" id="路径"></path>
                            <path d="M62.972561,22.904878 C62.972561,22.904878 62.8079268,22.7567073 62.7585366,22.904878 C62.7091463,23.0530488 62.7585366,22.904878 62.7585366,22.904878 C62.5101404,24.2125254 61.6276581,25.3109998 60.4042683,25.8353659 C61.3262195,27.6463415 62.8079268,30.4615854 62.8408537,30.5109756 C63.0245394,30.8892464 62.87982,31.3451127 62.5115854,31.5481707 C62.3972727,31.5986525 62.274293,31.6266025 62.1493902,31.6304878 C61.8638727,31.6348416 61.6012685,31.4747171 61.4743902,31.2189024 C61.4743902,31.2189024 59.2682927,27.2512195 58.5603659,25.7365854 C58.4374364,25.5049324 58.4374364,25.2273847 58.5603659,24.9957317 C58.7025682,24.769343 58.9515599,24.6323976 59.2189024,24.6335366 C60.4252387,24.4805287 61.3128476,23.4282827 61.2603659,22.2134146 C61.2603966,20.8832212 60.1868699,19.8023416 58.8567073,19.7932927 L56.7,19.7932927 L56.7,30.9884146 C56.7,31.3975768 56.3683085,31.7292683 55.9591463,31.7292683 L55.9591463,31.7292683 C55.7626597,31.7292683 55.5742207,31.6512143 55.4352837,31.5122773 C55.2963467,31.3733403 55.2182927,31.1849012 55.2182927,30.9884146 L55.2182927,19.0030488 C55.2182434,18.8036762 55.2985533,18.6126985 55.4410717,18.4732784 C55.58359,18.3338583 55.7762864,18.2577646 55.9756098,18.2621951 L58.9719512,18.2621951 C59.4557822,18.2654145 59.9351895,18.3546066 60.3878049,18.5256098 L60.3878049,18.5256098 C60.552439,18.5256098 60.4865854,18.3115854 60.3878049,18.2621951 C60.1573171,17.8835366 59.9268293,17.5213415 59.6634146,17.1426829 C50.5591463,3.79085366 50.4109756,3.80731707 40.779878,1.50243902 C31.1487805,-0.802439024 17.0396341,1.35426829 9.49939024,9.73414634 C1.95914634,18.1140244 -0.576219512,25.0121951 0.115243902,35.5817073 C0.747323557,43.3287962 4.01248934,50.6260351 9.36768293,56.2597561 C12.15,59.3054878 24.497561,68.0640244 40.8457317,63.6847561 C45.7240872,63.6617205 50.1901308,60.9440855 52.452439,56.6219512 C52.452439,56.6219512 53.7365854,52.9835366 56.6341463,52.2262195 C59.5317073,51.4689024 63.9768293,46.727439 65.6890244,40.5536585 C65.6890244,40.6030488 67.895122,33.2932927 62.972561,22.904878 Z M32.0707317,19.0030488 C32.0707317,18.5938866 32.4024232,18.2621951 32.8115854,18.2621951 L35.8902439,18.2621951 C37.924717,18.3951217 39.5069013,20.0840549 39.5069013,22.1228659 C39.5069013,24.1616768 37.924717,25.85061 35.8902439,25.9835366 C35.4719892,25.9835366 35.1329268,25.6444742 35.1329268,25.2262195 C35.1329268,24.8079648 35.4719892,24.4689024 35.8902439,24.4689024 C37.1904704,24.4689024 38.2445122,23.4148606 38.2445122,22.1146341 C38.2445122,20.8144077 37.1904704,19.7603659 35.8902439,19.7603659 L33.6182927,19.7603659 L33.6182927,30.9719512 C33.6182927,31.3811134 33.2866012,31.7128049 32.877439,31.7128049 L32.877439,31.7128049 C32.4682768,31.7128049 32.1365854,31.3811134 32.1365854,30.9719512 L32.0707317,19.0030488 Z M26.6871951,19.0030488 C26.6934122,18.5940858 27.0047053,18.2544934 27.4115854,18.2128049 C27.6252198,18.1991403 27.8349692,18.2745902 27.9909472,18.4212095 C28.1469252,18.5678288 28.2351927,18.7725148 28.2347561,18.9865854 L28.2347561,25.1768293 C28.2347561,25.6041764 27.8883228,25.9506098 27.4609756,25.9506098 C27.0336284,25.9506098 26.6871951,25.6041764 26.6871951,25.1768293 L26.6871951,19.0030488 Z M20.5628033,19.0030488 C20.5623683,18.7889783 20.6506357,18.5842923 20.8066138,18.4376729 C20.9625918,18.2910536 21.1723412,18.2156037 21.3859756,18.2292683 C21.7899871,18.2715769 22.0961117,18.6132975 22.0939024,19.0195122 L22.0939024,27.8109756 C22.0919309,29.052376 23.0605696,30.0788439 24.3,30.1487805 C25.3564177,30.1985288 26.3093153,29.5178877 26.604878,28.502439 C26.6942222,28.1563379 27.0047657,27.9133038 27.3621951,27.9097561 C27.6009815,27.9120004 27.8253548,28.0243712 27.9701729,28.2142439 C28.1149911,28.4041166 28.1640287,28.650218 28.1030488,28.8810976 C27.6035879,30.7377192 25.8068394,31.9378031 23.9004986,31.6880641 C21.9941577,31.4383252 20.567168,29.8159174 20.5628033,27.8932927 L20.5628033,19.0030488 Z M16.2823171,48.95 C16.1744419,49.0022862 16.0564484,49.0303799 15.9365854,49.0323171 C15.6510678,49.0366709 15.3884636,48.8765463 15.2615854,48.6207317 L10.520122,39.4835366 L10.520122,48.2585366 C10.5642789,48.5588409 10.4287772,48.8572288 10.1736035,49.0216032 C9.91842983,49.1859776 9.59071651,49.1859776 9.33554285,49.0216032 C9.08036918,48.8572288 8.9448674,48.5588409 8.98902439,48.2585366 L8.98902439,36.3390244 C9.00309588,35.9928517 9.24556167,35.6982245 9.58255755,35.6178051 C9.91955343,35.5373856 10.2689328,35.690777 10.4378049,35.9932927 L16.6115854,47.9128049 C16.8045364,48.2903568 16.6577057,48.7528734 16.2823171,48.95 L16.2823171,48.95 Z M16.7103659,42.479878 C16.7103659,42.7563232 16.5628841,43.0117691 16.3234756,43.1499916 C16.0840671,43.2882142 15.7891036,43.2882142 15.5496951,43.1499916 C15.3102866,43.0117691 15.1628049,42.7563232 15.1628049,42.479878 L15.1628049,36.3390244 C15.1628049,35.9116772 15.5092382,35.5652439 15.9365854,35.5652439 C16.3639325,35.5652439 16.7103658,35.9116772 16.7103659,36.3390244 L16.7103659,42.479878 Z M16.7103659,19.9085366 C16.6280509,20.088136 16.4774107,20.2274183 16.2919222,20.2954307 C16.1064336,20.3634432 15.901463,20.3545515 15.722561,20.2707317 C14.9113502,19.9425318 14.0457723,19.7694162 13.1707317,19.7603659 C10.5365854,19.7603659 10.520122,21.5384146 10.520122,21.6042683 C10.520122,22.3615854 10.520122,23.2506098 13.022561,24.2384146 C15.525,25.2262195 16.6939024,26.5103659 16.6939024,28.3542683 C16.6939024,29.5067073 15.8378049,31.6469512 12.5615854,31.6469512 C11.4911581,31.6343604 10.433747,31.4105697 9.45,30.9884146 C9.12709342,30.791697 9.00413792,30.3833788 9.16472849,30.0410673 C9.32531905,29.6987558 9.71791999,29.5323035 10.0756098,29.654878 C10.8552877,30.0242445 11.6999467,30.2368077 12.5615854,30.2804878 C15.1957317,30.2804878 15.2286585,28.502439 15.2286585,28.420122 C15.2286585,27.629878 15.0146341,26.7737805 12.4628049,25.6707317 C9.61463415,24.5182927 9.03841463,23.2506098 9.03841463,21.670122 C9.03841463,20.5176829 9.8945122,18.377439 13.1707317,18.377439 C14.241159,18.3900298 15.2985701,18.6138205 16.2823171,19.0359756 C16.5968941,19.2021372 16.7489467,19.5684457 16.6445122,19.9085366 L16.7103659,19.9085366 Z M28.2347561,45.1963415 C28.2347561,47.3148923 26.5173313,49.0323171 24.3987805,49.0323171 C22.2802297,49.0323171 20.5628049,47.3148923 20.5628049,45.1963415 L20.5628049,39.4012195 C20.5628049,37.2826687 22.2802297,35.5652439 24.3987805,35.5652439 C26.5173313,35.5652439 28.2347561,37.2826687 28.2347561,39.4012195 L28.2347561,45.1963415 Z M39.0018293,37.1128049 L36.6969512,37.1128049 L36.6969512,48.275 C36.6969512,48.7023472 36.3505179,49.0487805 35.9231707,49.0487805 C35.4958236,49.0487805 35.1493902,48.7023472 35.1493902,48.275 L35.1493902,37.1128049 L32.9268293,37.1128049 C32.4994821,37.1128049 32.1530488,36.7663716 32.1530488,36.3390244 C32.1530488,36.1352861 32.2350452,35.9401219 32.3806505,35.7976146 C32.5262559,35.6551072 32.7231392,35.5772782 32.9268293,35.5817073 L39.0841463,35.5817073 C39.2878365,35.5772782 39.4847197,35.6551072 39.6303251,35.7976146 C39.7759305,35.9401219 39.8579393,36.1352861 39.8579393,36.3390244 C39.8591774,36.5593359 39.7664553,36.7697341 39.6030093,36.9174641 C39.4395634,37.0651941 39.2208937,37.1362462 39.0018293,37.1128049 Z M50.5262195,49.0323171 L44.4512195,49.0323171 C44.03022,49.0324124 43.6863964,48.6959042 43.677439,48.275 L43.677439,45.9536585 C43.6863964,45.5327543 44.03022,45.1962462 44.4512195,45.1963414 L44.4512195,45.1963414 C44.872219,45.1962462 45.2160426,45.5327543 45.225,45.9536585 L45.225,47.5012195 L50.5426829,47.5012195 C50.8429873,47.4570625 51.1413751,47.5925643 51.3057495,47.847738 C51.4701239,48.1029116 51.4701239,48.430625 51.3057495,48.6857986 C51.1413751,48.9409723 50.8429873,49.0764741 50.5426829,49.0323171 L50.5262195,49.0323171 Z M50.5262195,41.7719512 C50.8265239,41.7277942 51.1249117,41.863296 51.2892861,42.1184697 C51.4536605,42.3736433 51.4536605,42.7013567 51.2892861,42.9565303 C51.1249117,43.211704 50.8265239,43.3472058 50.5262195,43.3030488 L44.4512195,43.3030488 C44.03022,43.3031441 43.6863964,42.9666359 43.677439,42.5457317 L43.677439,36.3390244 C43.677439,36.1352861 43.7594354,35.9401219 43.9050408,35.7976146 C44.0506461,35.6551072 44.2475294,35.5772782 44.4512195,35.5817073 L50.5426829,35.5817073 C50.746373,35.5772782 50.9432563,35.6551072 51.0888617,35.7976146 C51.234467,35.9401219 51.3165116,36.1352861 51.3164634,36.3390244 C51.3164634,36.7663716 50.9700301,37.1128049 50.5426829,37.1128049 L45.1591463,37.1128049 L45.1591463,41.804878 L50.5262195,41.7719512 Z M50.5262195,31.7292683 L44.4512195,31.7292683 C44.0238723,31.7292683 43.677439,31.382835 43.677439,30.9554878 L43.677439,28.6341463 C43.677439,28.2067992 44.0238723,27.8603659 44.4512195,27.8603659 L44.4512195,27.8603659 C44.8785667,27.8603659 45.225,28.2067992 45.225,28.6341463 L45.225,30.1652439 L50.5426829,30.1652439 C50.9700301,30.1652439 51.3164634,30.5116772 51.3164634,30.9390244 C51.3164634,31.3663716 50.9700301,31.7128049 50.5426829,31.7128049 L50.5262195,31.7292683 Z M51.3,19.0359756 C51.3,19.4633228 50.9535667,19.8097561 50.5262195,19.8097561 L45.1591463,19.8097561 L45.1591463,24.452439 L50.5426829,24.452439 C50.9700301,24.452439 51.3164634,24.7988723 51.3164634,25.2262195 C51.3164634,25.6535667 50.9700301,26 50.5426829,26 L44.4512195,26 C44.2460002,26 44.0491861,25.9184769 43.9040741,25.7733649 C43.7589621,25.628253 43.677439,25.4314389 43.677439,25.2262195 L43.677439,19.0359756 C43.677439,18.8307563 43.7589621,18.6339422 43.9040741,18.4888302 C44.0491861,18.3437182 44.2460002,18.2621951 44.4512195,18.2621951 L50.5426829,18.2621951 C50.9700301,18.2621951 51.3164634,18.6086284 51.3164634,19.0359756 L51.3,19.0359756 Z" id="形状"></path>
                        </g>
                    </g>
                </g>
            </g>
        </g>
    </g>
</svg>