<?xml version="1.0" encoding="UTF-8"?>
<svg width="90px" height="90px" viewBox="0 0 90 90" version="1.1" xmlns="http://www.w3.org/2000/svg" xmlns:xlink="http://www.w3.org/1999/xlink">
    <!-- Generator: Sketch 56.2 (81672) - https://sketch.com -->
    <title>img_footer_logo</title>
    <desc>Created with Sketch.</desc>
    <defs>
        <polygon id="path-1" points="0.000114946284 0.589756098 59.6978049 0.589756098 59.6978049 58.5364853 0.000114946284 58.5364853"></polygon>
    </defs>
    <g id="博客" stroke="none" stroke-width="1" fill="none" fill-rule="evenodd">
        <g id="05.1.1_列表" transform="translate(-240.000000, -1622.000000)">
            <g id="Footer" transform="translate(0.000000, 1248.000000)">
                <g id="img_footer_logo">
                    <g transform="translate(240.000000, 374.000000)">
                        <g id="编组">
                            <path d="M71.2211707,66.7993171 C71.2211707,66.7993171 72.018,67.1424878 72.3414146,68.2093171 C72.6648293,69.276878 73.0372683,70.037122 72.0867805,71.0051707 C71.1362927,71.9732195 70.4192195,72.4678537 69.2001951,72.3317561 C67.9811707,72.1956585 68.1194634,72.0785854 67.835561,71.7566341 C67.5523902,71.4346829 66.6406829,71.5759024 66.5887317,70.0729756 C66.5367805,68.5700488 66.3487317,67.3941951 68.160439,66.5805366 C69.9714146,65.766878 71.2211707,66.7993171 71.2211707,66.7993171" id="Fill-1" fill="#FFFFFF"></path>
                            <path d="M37.0065366,48.5926098 C35.8475122,48.5926098 34.9043415,49.5357805 34.9043415,50.6948049 L34.9043415,55.9235854 C34.9043415,57.0826098 35.8475122,58.0257805 37.0065366,58.0257805 C38.165561,58.0257805 39.1087317,57.0826098 39.1087317,55.9235854 L39.1087317,50.6948049 C39.1087317,49.5357805 38.165561,48.5926098 37.0065366,48.5926098" id="Fill-3" fill="#FFFFFF"></path>
                            <g id="编组-7" transform="translate(15.000000, 15.142244)">
                                <g id="编组">
                                    <mask id="mask-2" fill="white">
                                        <use xlink:href="#path-1"></use>
                                    </mask>
                                    <g id="Clip-6"></g>
                                    <path d="M46.2837073,17.1744878 C46.2837073,17.5579024 45.9727317,17.8681463 45.5900488,17.8681463 L40.7315122,17.8681463 L40.7315122,22.0703415 L45.5900488,22.0703415 C45.9727317,22.0703415 46.2837073,22.3813171 46.2837073,22.7647317 C46.2837073,23.1481463 45.9727317,23.4583902 45.5900488,23.4583902 L40.7315122,23.4583902 L40.0378537,23.4583902 C39.654439,23.4583902 39.3441951,23.1481463 39.3441951,22.7647317 L39.3441951,22.0703415 L39.3441951,17.8681463 L39.3441951,17.1744878 C39.3441951,16.7910732 39.654439,16.4808293 40.0378537,16.4808293 L45.5900488,16.4808293 C45.9727317,16.4808293 46.2837073,16.7910732 46.2837073,17.1744878 Z M45.5900488,28.6249756 L40.7315122,28.6249756 L40.0378537,28.6249756 C39.654439,28.6249756 39.3441951,28.314 39.3441951,27.9313171 L39.3441951,27.2369268 L39.3441951,25.848878 C39.3441951,25.4654634 39.654439,25.1552195 40.0378537,25.1552195 L40.0378537,25.1552195 C40.4212683,25.1552195 40.7315122,25.4654634 40.7315122,25.848878 L40.7315122,27.2369268 L45.5900488,27.2369268 C45.9727317,27.2369268 46.2837073,27.5479024 46.2837073,27.9313171 C46.2837073,28.314 45.9727317,28.6249756 45.5900488,28.6249756 L45.5900488,28.6249756 Z M45.5900488,37.6849756 C45.9727317,37.6849756 46.2837073,37.9959512 46.2837073,38.3786341 C46.2837073,38.7620488 45.9727317,39.0730244 45.5900488,39.0730244 L40.7315122,39.0730244 L40.0378537,39.0730244 C39.654439,39.0730244 39.3441951,38.7620488 39.3441951,38.3786341 L39.3441951,37.6849756 L39.3441951,33.4827805 L39.3441951,32.789122 C39.3441951,32.4057073 39.654439,32.0947317 40.0378537,32.0947317 L45.5900488,32.0947317 C45.9727317,32.0947317 46.2837073,32.4057073 46.2837073,32.789122 C46.2837073,33.1718049 45.9727317,33.4827805 45.5900488,33.4827805 L40.7315122,33.4827805 L40.7315122,37.6849756 L45.5900488,37.6849756 Z M45.5900488,44.2396098 L40.7315122,44.2396098 L40.0378537,44.2396098 C39.654439,44.2396098 39.3441951,43.9286341 39.3441951,43.5452195 L39.3441951,42.851561 L39.3441951,41.4635122 C39.3441951,41.0800976 39.654439,40.7698537 40.0378537,40.7698537 L40.0378537,40.7698537 C40.4212683,40.7698537 40.7315122,41.0800976 40.7315122,41.4635122 L40.7315122,42.851561 L45.5900488,42.851561 C45.9727317,42.851561 46.2837073,43.1618049 46.2837073,43.5452195 C46.2837073,43.9286341 45.9727317,44.2396098 45.5900488,44.2396098 L45.5900488,44.2396098 Z M35.1800488,33.4827805 L33.0983415,33.4827805 L33.0983415,43.5452195 C33.0983415,43.9286341 32.7873659,44.2396098 32.4039512,44.2396098 C32.0212683,44.2396098 31.7102927,43.9286341 31.7102927,43.5452195 L31.7102927,33.4827805 L29.6285854,33.4827805 C29.2451707,33.4827805 28.9341951,33.1718049 28.9341951,32.789122 C28.9341951,32.4057073 29.2451707,32.0947317 29.6285854,32.0947317 L35.1800488,32.0947317 C35.5634634,32.0947317 35.874439,32.4057073 35.874439,32.789122 C35.874439,33.1718049 35.5634634,33.4827805 35.1800488,33.4827805 L35.1800488,33.4827805 Z M25.464439,40.781561 C25.464439,42.6913171 23.9161463,44.2396098 22.0063902,44.2396098 C20.0966341,44.2396098 18.5483415,42.6913171 18.5483415,40.781561 L18.5483415,35.5527805 C18.5483415,33.6430244 20.0966341,32.0947317 22.0063902,32.0947317 C23.9161463,32.0947317 25.464439,33.6430244 25.464439,35.5527805 L25.464439,40.781561 Z M15.0083415,17.9713171 C14.8539512,18.3049756 14.4580976,18.4498537 14.124439,18.2954634 C14.1156585,18.2910732 13.0802927,17.8235122 11.8854146,17.8235122 C9.51029268,17.8235122 9.48321951,19.4303415 9.48321951,19.499122 C9.48321951,20.1825366 9.48321951,20.9566829 11.7449268,21.8727805 C14.0702927,22.8152195 15.0632195,23.9244878 15.0632195,25.5825366 C15.0632195,26.6230244 14.2824878,28.5898537 11.3293171,28.5898537 C9.83078049,28.5898537 8.5824878,28.019122 8.53053659,27.9942439 C8.19687805,27.8398537 8.052,27.444 8.20639024,27.1103415 C8.36078049,26.7774146 8.75590244,26.6318049 9.08956098,26.7861951 C9.11297561,26.796439 10.1417561,27.2581463 11.3293171,27.2581463 C13.704439,27.2581463 13.7315122,25.6513171 13.7315122,25.5825366 C13.7315122,24.8720488 13.5398049,24.036439 11.2451707,23.1071707 C8.67760976,22.0674146 8.1515122,20.9127805 8.1515122,19.499122 C8.1515122,18.4586341 8.9322439,16.4918049 11.8854146,16.4918049 C13.3832195,16.4918049 14.6322439,17.0625366 14.6841951,17.0874146 C15.0178537,17.2418049 15.1627317,17.6376585 15.0083415,17.9713171 L15.0083415,17.9713171 Z M15.0661463,38.3318049 C15.0661463,38.7137561 14.7566341,39.0232683 14.3746829,39.0232683 C13.9927317,39.0232683 13.6832195,38.7137561 13.6832195,38.3318049 L13.6832195,32.7920488 C13.6832195,32.4100976 13.9927317,32.1005854 14.3746829,32.1005854 C14.7566341,32.1005854 15.0661463,32.4100976 15.0661463,32.7920488 L15.0661463,38.3318049 Z M14.6929756,44.1554634 C14.5912683,44.2081463 14.4822439,44.2330244 14.3754146,44.2330244 C14.1251707,44.2330244 13.8837073,44.0969268 13.7607805,43.8598537 L9.49273171,35.628878 L9.49273171,43.5408293 C9.49273171,43.9227805 9.18321951,44.2330244 8.80126829,44.2330244 C8.41931707,44.2330244 8.10980488,43.9227805 8.10980488,43.5408293 L8.10980488,32.7920488 C8.10980488,32.4730244 8.32785366,32.1957073 8.63736585,32.1196098 C8.94687805,32.0449756 9.26809756,32.1905854 9.41517073,32.4737561 L14.9885854,43.2225366 C15.1641951,43.5620488 15.0317561,43.979122 14.6929756,44.1554634 L14.6929756,44.1554634 Z M18.5483415,17.1744878 C18.5483415,16.7757073 18.8841951,16.4559512 19.2888293,16.4822927 C19.6576098,16.5057073 19.9363902,16.8283902 19.9363902,17.1979024 L19.9363902,25.0879024 C19.9363902,26.2081463 20.8056585,27.1630244 21.924439,27.2054634 C22.9159024,27.2435122 23.7588293,26.5849756 24.0039512,25.6798537 C24.0873659,25.3732683 24.3588293,25.1552195 24.677122,25.1552195 C25.134439,25.1552195 25.4651707,25.5898537 25.3473659,26.0318049 C24.9529756,27.5076585 23.6066341,28.5949756 22.0063902,28.5949756 C20.0966341,28.5949756 18.5483415,27.0474146 18.5483415,25.1376585 L18.5483415,17.1744878 Z M24.0763902,17.1979024 C24.0763902,16.8283902 24.3551707,16.5057073 24.7239512,16.4822927 C25.1285854,16.4559512 25.464439,16.7757073 25.464439,17.1744878 L25.464439,22.7581463 C25.464439,23.141561 25.1534634,23.4525366 24.7707805,23.4525366 C24.3873659,23.4525366 24.0763902,23.141561 24.0763902,22.7581463 L24.0763902,17.1979024 Z M28.9341951,17.1452195 C28.9341951,16.7779024 29.232,16.4808293 29.5993171,16.4808293 L29.657122,16.4808293 C29.699561,16.4808293 29.7412683,16.4852195 29.7815122,16.4932683 C29.7859024,16.4925366 29.7910244,16.4918049 29.7961463,16.4918049 L32.3717561,16.4918049 C34.2910244,16.4918049 35.8532195,18.0532683 35.8532195,19.9732683 C35.8532195,21.8932683 34.2910244,23.4554634 32.3717561,23.4554634 C31.997122,23.4554634 31.6941951,23.1518049 31.6941951,22.7779024 C31.6941951,22.404 31.997122,22.1003415 32.3717561,22.1003415 C33.5439512,22.1003415 34.4980976,21.1461951 34.4980976,19.9732683 C34.4980976,18.8003415 33.5439512,17.8461951 32.3717561,17.8461951 L30.3222439,17.8461951 L30.3222439,27.9598537 C30.3222439,28.3271707 30.024439,28.6249756 29.657122,28.6249756 L29.5993171,28.6249756 C29.232,28.6249756 28.9341951,28.3271707 28.9341951,27.9598537 L28.9341951,17.1452195 Z M56.8049268,20.6618049 C56.7734634,20.6332683 56.6549268,20.5396098 56.6132195,20.7181463 C56.6080976,20.7408293 56.6037073,20.7518049 56.6007805,20.7554634 C56.357122,21.9627805 55.5266341,22.9879024 54.4759024,23.4057073 C55.3107805,25.0271707 56.6461463,27.5793659 56.6622439,27.6100976 C56.8400488,27.9496098 56.7083415,28.368878 56.369561,28.5466829 C56.2663902,28.6008293 56.1566341,28.6257073 56.0483415,28.6257073 C55.7980976,28.6257073 55.5566341,28.4903415 55.4329756,28.2532683 C55.4139512,28.2174146 53.5151707,24.5896098 52.8259024,23.226439 C52.716878,23.0113171 52.7278537,22.7552195 52.8537073,22.5503415 C52.9802927,22.3447317 53.2041951,22.2196098 53.4449268,22.2196098 C54.317122,22.2196098 55.2924878,21.2881463 55.2924878,20.0413171 C55.2924878,18.8398537 54.3149268,17.8630244 53.1134634,17.8630244 L51.1415122,17.8630244 L51.1415122,27.9598537 C51.1415122,28.3271707 50.8437073,28.6249756 50.4763902,28.6249756 L50.4185854,28.6249756 C50.0512683,28.6249756 49.7534634,28.3271707 49.7534634,27.9598537 L49.7534634,17.1452195 C49.7534634,16.7779024 50.0512683,16.4808293 50.4185854,16.4808293 L50.7149268,16.4808293 C50.7324878,16.4793659 50.7500488,16.4749756 50.7683415,16.4749756 L53.1134634,16.4749756 C53.5649268,16.4749756 53.994439,16.5627805 54.3917561,16.7171707 C54.396878,16.7142439 54.4005366,16.7105854 54.4137073,16.7098537 C54.5607805,16.704 54.4949268,16.5174146 54.4788293,16.4779024 C54.2666341,16.1442439 54.0500488,15.809122 53.8188293,15.4703415 C45.6054146,3.42058537 45.4649268,3.44034146 36.7905366,1.36814634 C28.1161463,-0.70404878 15.3763902,1.22619512 8.54663415,8.75839024 C1.71687805,16.2905854 -0.525804878,22.5722927 0.100536585,32.0947317 C0.726878049,41.6171707 5.93297561,48.0093659 8.44492683,50.7532683 C10.956878,53.4971707 22.0993171,61.4025366 36.8373659,57.4513171 C44.2854146,57.5010732 47.316878,51.1257073 47.316878,51.1257073 C47.316878,51.1257073 48.4715122,47.8469268 51.0815122,47.1657073 C53.6907805,46.4844878 57.7122439,42.2076585 59.2488293,36.6327805 C59.2488293,36.6327805 61.2500488,30.0408293 56.8049268,20.6618049 L56.8049268,20.6618049 Z" id="Fill-5" fill="#FFFFFF" mask="url(#mask-2)"></path>
                                </g>
                            </g>
                        </g>
                    </g>
                </g>
            </g>
        </g>
    </g>
</svg>