<?xml version="1.0" encoding="UTF-8"?>
<svg width="44px" height="44px" viewBox="0 0 44 44" version="1.1" xmlns="http://www.w3.org/2000/svg" xmlns:xlink="http://www.w3.org/1999/xlink">
    <!-- Generator: Sketch 56.2 (81672) - https://sketch.com -->
    <title>logo_line_nor</title>
    <desc>Created with Sketch.</desc>
    <g id="博客" stroke="none" stroke-width="1" fill="none" fill-rule="evenodd">
        <g id="05.1.1_列表" transform="translate(-1623.000000, -1658.000000)">
            <g id="Footer" transform="translate(0.000000, 1248.000000)">
                <g id="logo_line_nor2">
                    <g transform="translate(1623.000000, 410.000000)">
                        <g id="logo_line_nor">
                            <g>
                                <rect stroke="#979797" fill="#D8D8D8" opacity="0" x="0.5" y="0.5" width="43" height="43"></rect>
                                <g transform="translate(3.520000, 4.400000)" fill-rule="nonzero">
                                    <rect id="矩形" fill="#000000" opacity="0" x="0" y="0" width="35.2" height="35.2"></rect>
                                    <path d="M28.402,14.4657333 C28.8983973,14.4855064 29.2906316,14.8936757 29.2906316,15.3904667 C29.2906316,15.8872576 28.8983973,16.2954269 28.402,16.3152 L25.828,16.3152 L25.828,17.9652 L28.402,17.9652 C28.7406288,17.9517006 29.0594752,18.1246622 29.232807,18.41588 C29.4061388,18.7070978 29.4061388,19.0698356 29.232807,19.3610534 C29.0594752,19.6522712 28.7406288,19.8252327 28.402,19.8117333 L24.9025333,19.8117333 C24.3948466,19.8085175 23.9845323,19.3968944 23.9829333,18.8892 L23.9829333,11.8917333 C23.9829333,11.3857333 24.3965333,10.9677333 24.9069333,10.9677333 L28.4064,10.9677333 C28.9167111,10.9689483 29.329415,11.3836222 29.3282,11.8939333 C29.326985,12.4042444 28.9123111,12.8169483 28.402,12.8157333 L25.828,12.8157333 L25.828,14.4657333 L28.402,14.4657333 Z M22.748,18.8892 C22.745576,19.3983647 22.3317032,19.809614 21.8225333,19.8088 C21.5284768,19.8151797 21.249607,19.6784788 21.0745333,19.4421333 L17.4914667,14.5772 L17.4914667,18.8892 C17.4579784,19.3736237 17.0552465,19.7494759 16.5696667,19.7494759 C16.0840868,19.7494759 15.6813549,19.3736237 15.6478655,18.8892 L15.6478655,11.8917333 C15.6470527,11.3849935 16.056332,10.9730906 16.5630667,10.9706667 C16.8490667,10.9706667 17.1130667,11.1232 17.2890667,11.3432 L20.9,16.2272 L20.9,11.8917333 C20.9,11.3857333 21.3136,10.9677333 21.824,10.9677333 C22.33,10.9677333 22.748,11.3857333 22.748,11.8917333 L22.748,18.8892 Z M14.3278667,18.8892 C14.3254481,19.3988403 13.9120455,19.8109327 13.4024,19.8117333 C12.8947133,19.8085175 12.484399,19.3968944 12.4828,18.8892 L12.4828,11.8917333 C12.4828,11.3857333 12.8964,10.9677333 13.4068,10.9677333 C13.9142667,10.9677333 14.3278667,11.3857333 14.3278667,11.8917333 L14.3278667,18.8892 Z M10.7110667,19.8117333 L7.2116,19.8117333 C6.70318793,19.8085413 6.29159963,19.3976064 6.2876,18.8892 L6.2876,11.8917333 C6.2876,11.3857333 6.7056,10.9677333 7.2116,10.9677333 C7.722,10.9677333 8.1356,11.3857333 8.1356,11.8917333 L8.1356,17.9652 L10.7110667,17.9652 C11.2066654,17.984957 11.5982608,18.3924743 11.5982608,18.8884667 C11.5982608,19.384459 11.2066654,19.7919764 10.7110667,19.8117333 L10.7110667,19.8117333 Z M35.2,15.1272 C35.2,7.24973332 27.302,0.838933322 17.6,0.838933322 C7.898,0.838933322 0,7.24973332 0,15.1272 C0,22.1833333 6.26266668,28.0954667 14.718,29.2189333 C15.2914667,29.3392 16.0717333,29.5973333 16.2697333,30.0842667 C16.4457333,30.5257334 16.3856,31.2077334 16.3254667,31.6682667 L16.0849333,33.1642667 C16.0189333,33.6057334 15.7329333,34.9037334 17.6234667,34.1102667 C19.5169334,33.3197334 27.7669334,28.1292 31.4629333,23.8802667 C33.9914667,21.1097333 35.2,18.2717333 35.2,15.1272 L35.2,15.1272 Z" id="形状" fill="#FFFFFF"></path>
                                </g>
                            </g>
                        </g>
                    </g>
                </g>
            </g>
        </g>
    </g>
</svg>